StickNoBills-ExtraBold.ufo
<glyph name="B" format="1">
  <advance width="496"/>
  <unicode hex="0042"/>
  <outline>
    <contour>
      <point x="42" y="0" type="line"/>
      <point x="42" y="700" type="line"/>
      <point x="183" y="700" type="line"/>
      <point x="183" y="0" type="line"/>
    </contour>
    <contour>
      <point x="237" y="0" type="curve"/>
      <point x="237" y="122" type="line"/>
      <point x="238.35" y="122"/>
      <point x="239.684" y="122.014"/>
      <point x="241" y="122.041" type="curve" smooth="yes"/>
      <point x="324.493" y="123.762"/>
      <point x="340" y="179.404"/>
      <point x="340" y="205" type="curve" smooth="yes"/>
      <point x="340" y="226.586"/>
      <point x="327.485" y="286.68"/>
      <point x="242" y="288.935" type="curve" smooth="yes"/>
      <point x="240.36" y="288.978"/>
      <point x="238.694" y="289"/>
      <point x="237" y="289" type="curve"/>
      <point x="237" y="411" type="line"/>
      <point x="239.706" y="411"/>
      <point x="242.373" y="411.071"/>
      <point x="245" y="411.212" type="curve" smooth="yes"/>
      <point x="300.615" y="414.19"/>
      <point x="338" y="448.3"/>
      <point x="338" y="497" type="curve" smooth="yes"/>
      <point x="338" y="545.576"/>
      <point x="298.359" y="574.331"/>
      <point x="242" y="576.847" type="curve" smooth="yes"/>
      <point x="240.348" y="576.92"/>
      <point x="238.681" y="576.972"/>
      <point x="237" y="577" type="curve"/>
      <point x="237" y="700" type="line"/>
      <point x="245" y="701"/>
      <point x="253" y="701"/>
      <point x="261" y="701" type="curve" smooth="yes"/>
      <point x="413.599" y="701"/>
      <point x="470" y="573.811"/>
      <point x="470" y="513" type="curve" smooth="yes"/>
      <point x="469" y="421"/>
      <point x="436" y="378"/>
      <point x="401" y="352" type="curve"/>
      <point x="440.306" y="320.969"/>
      <point x="474" y="283.592"/>
      <point x="474" y="197" type="curve" smooth="yes"/>
      <point x="473" y="86"/>
      <point x="382" y="-2"/>
      <point x="265" y="-2" type="curve" smooth="yes"/>
      <point x="256" y="-2"/>
      <point x="246" y="-1"/>
    </contour>
  </outline>
</glyph>
<glyph name="a" format="1">
  <advance width="472"/>
  <unicode hex="0061"/>
  <outline>
    <contour>
      <point x="24.5996" y="132.89" type="curve" smooth="yes"/>
      <point x="24.5996" y="183.49" type="line" smooth="yes"/>
      <point x="24.5996" y="219.79"/>
      <point x="32.2998" y="256.09"/>
      <point x="78.5" y="282.49" type="curve" smooth="yes"/>
      <point x="125.8" y="309.99"/>
      <point x="290.8" y="341.89"/>
      <point x="290.8" y="385.89" type="curve" smooth="yes"/>
      <point x="290.8" y="393.624"/>
      <point x="290.8" y="401.358"/>
      <point x="290.8" y="409.09" type="curve" smooth="yes"/>
      <point x="290.8" y="430.342"/>
      <point x="278.83" y="447.259"/>
      <point x="246.8" y="447.59" type="curve"/>
      <point x="246.8" y="570.69" type="line"/>
      <point x="362.087" y="570.69"/>
      <point x="418.399" y="468.307"/>
      <point x="418.399" y="417.79" type="curve" smooth="yes"/>
      <point x="418.399" y="157.09" type="line" smooth="yes"/>
      <point x="418.399" y="149.027"/>
      <point x="421.609" y="125.19"/>
      <point x="447" y="125.19" type="curve"/>
      <point x="447" y="0.889648" type="line"/>
      <point x="404.289" y="0.889648"/>
      <point x="372.074" y="13.2612"/>
      <point x="349.1" y="32.79" type="curve"/>
      <point x="322.746" y="12.1657"/>
      <point x="289.647" y="0.889648"/>
      <point x="247.899" y="0.889648" type="curve"/>
      <point x="247.899" y="124.09" type="line"/>
      <point x="282.822" y="124.09"/>
      <point x="290.8" y="149.836"/>
      <point x="290.8" y="163.69" type="curve" smooth="yes"/>
      <point x="290.8" y="249.49" type="line"/>
      <point x="249" y="225.29"/>
      <point x="164.3" y="208.79"/>
      <point x="148.899" y="201.09" type="curve" smooth="yes"/>
      <point x="142.3" y="197.79"/>
      <point x="135.7" y="190.09"/>
      <point x="135.7" y="177.99" type="curve" smooth="yes"/>
      <point x="135.7" y="159.69" type="line" smooth="yes"/>
      <point x="135.7" y="136.29"/>
      <point x="145.989" y="124.09"/>
      <point x="194" y="124.09" type="curve"/>
      <point x="194" y="0.889648" type="line"/>
      <point x="87.2998" y="0.889648"/>
      <point x="24.5996" y="70.1904"/>
    </contour>
    <contour>
      <point x="32.2998" y="427.69" type="line"/>
      <point x="32.2998" y="509.371"/>
      <point x="116.678" y="570.69"/>
      <point x="195.1" y="570.69" type="curve"/>
      <point x="195.1" y="447.49" type="line"/>
      <point x="164.684" y="447.49"/>
      <point x="147.8" y="427.048"/>
      <point x="147.8" y="383.69" type="curve"/>
    </contour>
  </outline>
</glyph>
<glyph name="c" format="1">
  <advance width="456"/>
  <unicode hex="0063"/>
  <outline>
    <contour>
      <point x="37.8008" y="155.14" type="curve" smooth="yes"/>
      <point x="37.8008" y="414.74" type="line"/>
      <point x="38.9948" y="467.295"/>
      <point x="91.4275" y="567.64"/>
      <point x="214.9" y="567.64" type="curve"/>
      <point x="214.9" y="440.04" type="line"/>
      <point x="179.811" y="440.04"/>
      <point x="168.7" y="423.635"/>
      <point x="168.7" y="412.54" type="curve" smooth="yes"/>
      <point x="168.7" y="155.14" type="line" smooth="yes"/>
      <point x="168.7" y="135.322"/>
      <point x="182.963" y="127.985"/>
      <point x="215.7" y="127.44" type="curve"/>
      <point x="215.7" y="0.0400391" type="line"/>
      <point x="86.0484" y="0.0400391"/>
      <point x="37.8008" y="103.232"/>
    </contour>
    <contour>
      <point x="261.101" y="438.94" type="curve"/>
      <point x="261.101" y="567.64" type="line"/>
      <point x="350.748" y="567.64"/>
      <point x="423.9" y="495.692"/>
      <point x="423.9" y="409.24" type="curve"/>
      <point x="301.801" y="363.04" type="line"/>
      <point x="301.801" y="396.04" type="line" smooth="yes"/>
      <point x="301.801" y="428.217"/>
      <point x="285.147" y="438.94"/>
    </contour>
    <contour>
      <point x="261.101" y="-1.05957" type="curve"/>
      <point x="261.101" y="127.64" type="line"/>
      <point x="296.083" y="127.64"/>
      <point x="313.9" y="134.79"/>
      <point x="313.9" y="171.64" type="curve" smooth="yes"/>
      <point x="313.9" y="204.64" type="line"/>
      <point x="436" y="158.44" type="line"/>
      <point x="437.058" y="73.3925"/>
      <point x="348.636" y="-3.78023"/>
    </contour>
  </outline>
</glyph>
<glyph name="f" format="1">
  <advance width="321"/>
  <unicode hex="0066"/>
  <outline>
    <contour>
      <point x="15.1992" y="390.99" type="line"/>
      <point x="15.1992" y="518.59" type="line"/>
      <point x="84.5" y="518.59" type="line"/>
      <point x="84.5" y="558.19" type="line" smooth="yes"/>
      <point x="84.5" y="607.69"/>
      <point x="140.6" y="715.49"/>
      <point x="253.899" y="716.59" type="curve" smooth="yes"/>
      <point x="321" y="716.59" type="line"/>
      <point x="291.3" y="587.89" type="line"/>
      <point x="255" y="587.89" type="line"/>
      <point x="224.199" y="586.79"/>
      <point x="218.699" y="561.49"/>
      <point x="218.699" y="558.19" type="curve" smooth="yes"/>
      <point x="218.699" y="517.49" type="line"/>
      <point x="291.3" y="518.59" type="line"/>
      <point x="291.3" y="390.99" type="line"/>
      <point x="218.699" y="390.99" type="line"/>
      <point x="218.699" y="-9.00977" type="line"/>
      <point x="84.5" y="-9.00977" type="line"/>
      <point x="84.5" y="390.99" type="line"/>
    </contour>
  </outline>
</glyph>
<glyph name="m" format="1">
  <advance width="762"/>
  <unicode hex="006D"/>
  <outline>
    <contour>
      <point x="37.5996" y="-0.160156" type="line"/>
      <point x="37.5996" y="414.54" type="line" smooth="yes"/>
      <point x="37.5996" y="471.457"/>
      <point x="99.7043" y="570.74"/>
      <point x="219.1" y="570.74" type="curve"/>
      <point x="219.1" y="437.64" type="line"/>
      <point x="183.823" y="437.64"/>
      <point x="174" y="415.009"/>
      <point x="174" y="398.04" type="curve" smooth="yes"/>
      <point x="174" y="-0.160156" type="line"/>
    </contour>
    <contour>
      <point x="265.3" y="437.64" type="curve"/>
      <point x="265.3" y="570.74" type="line"/>
      <point x="315.703" y="570.74"/>
      <point x="351.215" y="556.925"/>
      <point x="380.8" y="534.44" type="curve"/>
      <point x="410.305" y="558.044"/>
      <point x="445.957" y="570.74"/>
      <point x="496.3" y="570.74" type="curve"/>
      <point x="496.3" y="437.64" type="line"/>
      <point x="460.079" y="437.64"/>
      <point x="449" y="418.99"/>
      <point x="449" y="398.04" type="curve" smooth="yes"/>
      <point x="449" y="-0.160156" type="line"/>
      <point x="312.6" y="-0.160156" type="line"/>
      <point x="312.6" y="398.04" type="line" smooth="yes"/>
      <point x="312.6" y="420.381"/>
      <point x="300.588" y="437.64"/>
    </contour>
    <contour>
      <point x="541.399" y="437.64" type="curve"/>
      <point x="541.399" y="570.74" type="line"/>
      <point x="661.863" y="570.74"/>
      <point x="724" y="468.208"/>
      <point x="724" y="414.54" type="curve" smooth="yes"/>
      <point x="724" y="-0.160156" type="line"/>
      <point x="587.6" y="-0.160156" type="line"/>
      <point x="587.6" y="398.04" type="line" smooth="yes"/>
      <point x="587.6" y="421.85"/>
      <point x="576.728" y="437.64"/>
    </contour>
  </outline>
</glyph>
<glyph name="n" format="1">
  <advance width="487"/>
  <unicode hex="006E"/>
  <outline>
    <contour>
      <point x="37.5996" y="-0.160156" type="line"/>
      <point x="37.5996" y="414.54" type="line" smooth="yes"/>
      <point x="37.5996" y="470.753"/>
      <point x="99.2895" y="570.74"/>
      <point x="220.2" y="570.74" type="curve"/>
      <point x="220.2" y="437.64" type="line"/>
      <point x="184.278" y="437.64"/>
      <point x="174" y="416.445"/>
      <point x="174" y="399.04" type="curve" smooth="yes"/>
      <point x="174" y="-0.160156" type="line"/>
    </contour>
    <contour>
      <point x="266.399" y="437.64" type="curve"/>
      <point x="266.399" y="570.74" type="line"/>
      <point x="387.308" y="570.74"/>
      <point x="449" y="467.506"/>
      <point x="449" y="414.54" type="curve" smooth="yes"/>
      <point x="449" y="-0.160156" type="line"/>
      <point x="312.6" y="-0.160156" type="line"/>
      <point x="312.6" y="399.04" type="line" smooth="yes"/>
      <point x="312.6" y="417.827"/>
      <point x="301.348" y="437.64"/>
    </contour>
  </outline>
</glyph>
<glyph name="o" format="1">
  <advance width="476"/>
  <unicode hex="006F"/>
  <outline>
    <contour>
      <point x="38" y="155.14" type="curve" smooth="yes"/>
      <point x="38" y="413.64" type="line" smooth="yes"/>
      <point x="38" y="467.267"/>
      <point x="96.8715" y="567.64"/>
      <point x="218.4" y="567.64" type="curve"/>
      <point x="218.4" y="437.84" type="line"/>
      <point x="178.902" y="437.84"/>
      <point x="170" y="414.56"/>
      <point x="170" y="399.34" type="curve" smooth="yes"/>
      <point x="170" y="169.44" type="line" smooth="yes"/>
      <point x="170" y="144.627"/>
      <point x="181.7" y="128.74"/>
      <point x="218.4" y="128.74" type="curve"/>
      <point x="218.4" y="-1.05957" type="line"/>
      <point x="95.7329" y="-1.05957"/>
      <point x="38" y="102.533"/>
    </contour>
    <contour>
      <point x="263.5" y="-1.05957" type="curve"/>
      <point x="263.5" y="128.74" type="line"/>
      <point x="301.037" y="128.74"/>
      <point x="309.7" y="151.725"/>
      <point x="309.7" y="167.24" type="curve" smooth="yes"/>
      <point x="309.7" y="399.34" type="line" smooth="yes"/>
      <point x="309.7" y="421.991"/>
      <point x="300.067" y="437.84"/>
      <point x="263.5" y="437.84" type="curve"/>
      <point x="263.5" y="567.64" type="line"/>
      <point x="380.758" y="567.64"/>
      <point x="438.4" y="467.367"/>
      <point x="438.4" y="413.64" type="curve" smooth="yes"/>
      <point x="438.4" y="155.14" type="line" smooth="yes"/>
      <point x="438.4" y="101.404"/>
      <point x="381.904" y="-1.05957"/>
    </contour>
  </outline>
</glyph>
<glyph name="copyright" format="1">
  <advance width="824"/>
  <unicode hex="00A9"/>
  <outline>
    <contour>
      <point x="35" y="339" type="curve" smooth="yes"/>
      <point x="35" y="589"/>
      <point x="249" y="725"/>
      <point x="397" y="726" type="curve"/>
      <point x="397" y="636" type="line"/>
      <point x="268" y="635"/>
      <point x="124" y="516"/>
      <point x="124" y="339" type="curve" smooth="yes"/>
      <point x="124" y="181.15"/>
      <point x="249.073" y="51.0924"/>
      <point x="397" y="44" type="curve"/>
      <point x="397" y="-49" type="line"/>
      <point x="222.152" y="-42.9007"/>
      <point x="35" y="107.929"/>
    </contour>
    <contour>
      <point x="272" y="231" type="curve"/>
      <point x="272" y="447" type="line"/>
      <point x="272" y="485"/>
      <point x="306" y="566"/>
      <point x="397" y="566" type="curve"/>
      <point x="397" y="476" type="line"/>
      <point x="368" y="476"/>
      <point x="362" y="450"/>
      <point x="362" y="447" type="curve"/>
      <point x="362" y="231" type="line"/>
      <point x="362" y="228"/>
      <point x="368" y="203"/>
      <point x="397" y="203" type="curve"/>
      <point x="397" y="112" type="line"/>
      <point x="306" y="112"/>
      <point x="272" y="193"/>
    </contour>
    <contour>
      <point x="432" y="-49" type="curve"/>
      <point x="432" y="44" type="line"/>
      <point x="578" y="51"/>
      <point x="705" y="178.971"/>
      <point x="705" y="332" type="curve" smooth="yes"/>
      <point x="705" y="513.455"/>
      <point x="565.243" y="634.967"/>
      <point x="432" y="636" type="curve"/>
      <point x="432" y="726" type="line"/>
      <point x="587.471" y="724.95"/>
      <point x="794" y="584.547"/>
      <point x="794" y="327" type="curve"/>
      <point x="788" y="104"/>
      <point x="604" y="-43"/>
    </contour>
    <contour>
      <point x="432" y="112" type="curve"/>
      <point x="432" y="201" type="line"/>
      <point x="449.448" y="201.404"/>
      <point x="462" y="217.38"/>
      <point x="462" y="242" type="curve" smooth="yes"/>
      <point x="462" y="264" type="line"/>
      <point x="550" y="232" type="line"/>
      <point x="550" y="171"/>
      <point x="491" y="112"/>
    </contour>
    <contour>
      <point x="432" y="476" type="curve"/>
      <point x="432" y="566" type="line"/>
      <point x="491" y="566"/>
      <point x="550" y="507"/>
      <point x="550" y="446" type="curve"/>
      <point x="462" y="413" type="line"/>
      <point x="462" y="432" type="line" smooth="yes"/>
      <point x="462" y="461.81"/>
      <point x="446.434" y="475.508"/>
    </contour>
  </outline>
</glyph>
<glyph name="ordmasculine" format="1">
  <advance width="230"/>
  <unicode hex="00BA"/>
  <outline>
    <contour>
      <point x="26" y="361" type="line"/>
      <point x="26" y="432" type="line"/>
      <point x="204" y="432" type="line"/>
      <point x="204" y="361" type="line"/>
    </contour>
    <component base="o" xScale="0.45" yScale="0.45" xOffset="5.01011" yOffset="450.81"/>
  </outline>
</glyph>
<glyph name="dotaccent" format="1">
  <advance width="202"/>
  <unicode hex="02D9"/>
  <outline>
    <contour>
      <point x="26" y="678" type="curve" smooth="yes"/>
      <point x="26" y="720"/>
      <point x="59" y="754"/>
      <point x="101" y="754" type="curve" smooth="yes"/>
      <point x="143" y="754"/>
      <point x="176" y="720"/>
      <point x="176" y="678" type="curve" smooth="yes"/>
      <point x="176" y="636"/>
      <point x="143" y="603"/>
      <point x="101" y="603" type="curve" smooth="yes"/>
      <point x="59" y="603"/>
      <point x="26" y="636"/>
    </contour>
  </outline>
</glyph>
<glyph name="tml_Ca" format="1">
  <advance width="726"/>
  <unicode hex="0B9A"/>
  <outline>
    <contour>
      <point x="39" y="157" type="curve" smooth="yes"/>
      <point x="39" y="218" type="line" smooth="yes"/>
      <point x="39" y="326"/>
      <point x="149" y="371"/>
      <point x="235" y="371" type="curve" smooth="yes"/>
      <point x="643" y="371" type="line"/>
      <point x="643" y="249" type="line"/>
      <point x="238" y="249" type="line" smooth="yes"/>
      <point x="174" y="249"/>
      <point x="160" y="239"/>
      <point x="160" y="188" type="curve" smooth="yes"/>
      <point x="160" y="127"/>
      <point x="180" y="122"/>
      <point x="269" y="122" type="curve"/>
      <point x="269" y="-1" type="line"/>
      <point x="112" y="0"/>
      <point x="39" y="68"/>
    </contour>
    <contour>
      <point x="322" y="-1" type="curve"/>
      <point x="322" y="122" type="line"/>
      <point x="388" y="122"/>
      <point x="419" y="141"/>
      <point x="419" y="187" type="curve" smooth="yes"/>
      <point x="419" y="588" type="line"/>
      <point x="541" y="588" type="line"/>
      <point x="541" y="191" type="line" smooth="yes"/>
      <point x="541" y="95"/>
      <point x="489" y="-1"/>
    </contour>
    <contour>
      <point x="164" y="348" type="line"/>
      <point x="164" y="586" type="line"/>
      <point x="287" y="586" type="line"/>
      <point x="286" y="348" type="line"/>
    </contour>
    <contour>
      <point x="381" y="470" type="line"/>
      <point x="381" y="595" type="line"/>
      <point x="688" y="595" type="line"/>
      <point x="688" y="470" type="line"/>
    </contour>
    <contour>
      <point x="164" y="470" type="line"/>
      <point x="164" y="595" type="line"/>
      <point x="327" y="595" type="line"/>
      <point x="327" y="470" type="line"/>
    </contour>
  </outline>
</glyph>
<glyph name="tml_Ja" format="1">
  <advance width="0"/>
  <unicode hex="0B9C"/>
  <outline>
    <contour>
      <point x="618" y="-55" type="line" smooth="yes"/>
      <point x="681" y="-55"/>
      <point x="781" y="-60"/>
      <point x="781" y="-14" type="curve" smooth="yes"/>
      <point x="781" y="7"/>
      <point x="757" y="15"/>
      <point x="717" y="16" type="curve"/>
      <point x="717" y="140" type="line"/>
      <point x="804" y="140"/>
      <point x="903" y="97"/>
      <point x="903" y="-16" type="curve" smooth="yes"/>
      <point x="903" y="-151"/>
      <point x="773" y="-177"/>
      <point x="618" y="-177" type="curve" smooth="yes"/>
    </contour>
    <contour>
      <point x="346" y="-55" type="curve"/>
      <point x="346" y="-178" type="line"/>
      <point x="462" y="-178"/>
      <point x="527" y="-108"/>
      <point x="528" y="-59" type="curve" smooth="yes"/>
      <point x="530" y="13"/>
      <point x="555" y="17"/>
      <point x="579" y="16" type="curve"/>
      <point x="663" y="16" type="line"/>
      <point x="663" y="140" type="line"/>
      <point x="597" y="140" type="line"/>
      <point x="500" y="140"/>
      <point x="411" y="90"/>
      <point x="409" y="-1" type="curve" smooth="yes"/>
      <point x="408" y="-50"/>
      <point x="386" y="-55"/>
    </contour>
    <contour>
      <point x="54" y="11" type="line" smooth="yes"/>
      <point x="54" y="-92"/>
      <point x="163" y="-180"/>
      <point x="285" y="-180" type="curve"/>
      <point x="285" y="-58" type="line"/>
      <point x="209" y="-58"/>
      <point x="176" y="-19"/>
      <point x="176" y="46" type="curve" smooth="yes"/>
      <point x="176" y="93"/>
      <point x="195" y="157"/>
      <point x="254" y="157" type="curve" smooth="yes"/>
      <point x="717" y="158" type="line"/>
      <point x="735" y="158" type="line" smooth="yes"/>
      <point x="815" y="158"/>
      <point x="907" y="218"/>
      <point x="909" y="387" type="curve" smooth="yes"/>
      <point x="909" y="448" type="line"/>
      <point x="909" y="597"/>
      <point x="819" y="676"/>
      <point x="717" y="684" type="curve"/>
      <point x="717" y="561" type="line"/>
      <point x="764" y="554"/>
      <point x="785" y="512"/>
      <point x="785" y="448" type="curve"/>
      <point x="785" y="409" type="line" smooth="yes"/>
      <point x="785" y="349"/>
      <point x="792" y="281"/>
      <point x="717" y="281" type="curve" smooth="yes"/>
      <point x="261" y="280" type="line" smooth="yes"/>
      <point x="124" y="280"/>
      <point x="54" y="164"/>
      <point x="54" y="83" type="curve" smooth="yes"/>
    </contour>
    <contour>
      <point x="460" y="371" type="line"/>
      <point x="460" y="468" type="line" smooth="yes"/>
      <point x="460" y="601"/>
      <point x="570" y="675"/>
      <point x="663" y="684" type="curve"/>
      <point x="663" y="561" type="line"/>
      <point x="623" y="553"/>
      <point x="582" y="517"/>
      <point x="582" y="451" type="curve" smooth="yes"/>
      <point x="582" y="371" type="line"/>
    </contour>
    <contour>
      <point x="39" y="471" type="curve" smooth="yes"/>
      <point x="40" y="496" type="line" smooth="yes"/>
      <point x="40" y="581"/>
      <point x="135" y="674"/>
      <point x="228" y="686" type="curve" smooth="yes"/>
      <point x="341" y="700"/>
      <point x="423" y="588"/>
      <point x="423" y="499" type="curve" smooth="yes"/>
      <point x="423" y="471" type="line" smooth="yes"/>
      <point x="423" y="410"/>
      <point x="341" y="307"/>
      <point x="259" y="307" type="curve"/>
      <point x="259" y="432" type="line"/>
      <point x="281" y="440"/>
      <point x="301" y="467"/>
      <point x="301" y="499" type="curve" smooth="yes"/>
      <point x="301" y="538"/>
      <point x="270" y="569"/>
      <point x="231" y="569" type="curve" smooth="yes"/>
      <point x="192" y="569"/>
      <point x="161" y="538"/>
      <point x="161" y="499" type="curve" smooth="yes"/>
      <point x="161" y="466"/>
      <point x="182" y="439"/>
      <point x="205" y="431" type="curve"/>
      <point x="205" y="307" type="line"/>
      <point x="118" y="307"/>
      <point x="39" y="402"/>
    </contour>
    <contour>
      <point x="39" y="472" type="line"/>
      <point x="39" y="482" type="line" smooth="yes"/>
      <point x="39" y="537"/>
      <point x="71" y="696"/>
      <point x="300" y="696" type="curve"/>
      <point x="445" y="696"/>
      <point x="582" y="612"/>
      <point x="582" y="408" type="curve" smooth="yes"/>
      <point x="582" y="320" type="line"/>
      <point x="460" y="320" type="line"/>
      <point x="460" y="408" type="line" smooth="yes"/>
      <point x="460" y="543"/>
      <point x="351" y="582"/>
      <point x="303" y="582" type="curve" smooth="yes"/>
      <point x="262" y="582"/>
      <point x="158" y="587"/>
      <point x="158" y="483" type="curve"/>
    </contour>
  </outline>
</glyph>
<glyph name="tml_MatraAa" format="1">
  <advance width="568"/>
  <unicode hex="0BBE"/>
  <outline>
    <contour>
      <point x="323" y="0" type="line"/>
      <point x="445" y="0" type="line"/>
      <point x="445" y="593" type="line"/>
      <point x="323" y="593" type="line"/>
    </contour>
    <contour>
      <point x="39" y="0" type="line"/>
      <point x="39" y="592" type="line"/>
      <point x="161" y="593" type="line"/>
      <point x="161" y="0" type="line"/>
    </contour>
    <contour>
      <point x="271" y="473" type="line"/>
      <point x="529" y="473" type="line"/>
      <point x="529" y="595" type="line"/>
      <point x="271" y="595" type="line"/>
    </contour>
    <contour>
      <point x="39" y="473" type="line"/>
      <point x="39" y="595" type="line"/>
      <point x="218" y="595" type="line"/>
      <point x="218" y="473" type="line"/>
    </contour>
  </outline>
</glyph>
<glyph name="si_A" format="1">
  <advance width="544"/>
  <unicode hex="0D85"/>
  <outline>
    <contour>
      <point x="312" y="-169" type="line"/>
      <point x="312" y="380" type="line" smooth="yes"/>
      <point x="312" y="466"/>
      <point x="338" y="529"/>
      <point x="484" y="579" type="curve"/>
      <point x="514" y="434" type="line"/>
      <point x="436.915" y="414"/>
      <point x="442" y="389.004"/>
      <point x="442" y="348" type="curve" smooth="yes"/>
      <point x="442" y="140" type="line"/>
      <point x="494" y="140" type="line"/>
      <point x="494" y="0" type="line"/>
      <point x="442" y="0" type="line"/>
      <point x="442" y="-169" type="line"/>
    </contour>
    <contour>
      <point x="30" y="198" type="curve" smooth="yes"/>
      <point x="30" y="337.017"/>
      <point x="125.045" y="402"/>
      <point x="256" y="402" type="curve" smooth="yes"/>
      <point x="313" y="402" type="line"/>
      <point x="313" y="439.367"/>
      <point x="278.239" y="457.175"/>
      <point x="243.43" y="457.175" type="curve" smooth="yes"/>
      <point x="213.982" y="457.175"/>
      <point x="184.5" y="444.43"/>
      <point x="176" y="420" type="curve"/>
      <point x="58" y="459" type="line"/>
      <point x="79.418" y="539.204"/>
      <point x="157.76" y="577.97"/>
      <point x="238.147" y="577.97" type="curve" smooth="yes"/>
      <point x="338.48" y="577.97"/>
      <point x="442" y="517.58"/>
      <point x="442" y="402" type="curve" smooth="yes"/>
      <point x="442" y="263" type="line"/>
      <point x="256" y="263" type="line" smooth="yes"/>
      <point x="217" y="263"/>
      <point x="173" y="257.19"/>
      <point x="173" y="198" type="curve"/>
      <point x="173" y="146"/>
      <point x="220" y="136"/>
      <point x="257" y="136" type="curve" smooth="yes"/>
      <point x="257" y="0" type="line" smooth="yes"/>
      <point x="137" y="0"/>
      <point x="30" y="59.3916"/>
    </contour>
  </outline>
</glyph>
<glyph name="si_Ee" format="1">
  <advance width="604"/>
  <unicode hex="0D92"/>
  <outline>
    <contour>
      <point x="437.001" y="518" type="line"/>
      <point x="437.001" y="819" type="line"/>
      <point x="573.001" y="819" type="line"/>
      <point x="573.001" y="518" type="line"/>
    </contour>
    <contour>
      <point x="339" y="-5" type="curve"/>
      <point x="339" y="140" type="line"/>
      <point x="381.411" y="140"/>
      <point x="434" y="153.522"/>
      <point x="434" y="250" type="curve" smooth="yes"/>
      <point x="574" y="250" type="line" smooth="yes"/>
      <point x="574" y="78.4932"/>
      <point x="493.968" y="-4.83398"/>
    </contour>
    <contour>
      <point x="30" y="252" type="line"/>
      <point x="30" y="354" type="line"/>
      <point x="247" y="354" type="line"/>
      <point x="247" y="360" type="line"/>
      <point x="247.053" y="389.333"/>
      <point x="225.721" y="400"/>
      <point x="205" y="400" type="curve" smooth="yes"/>
      <point x="195.147" y="400"/>
      <point x="169.971" y="397"/>
      <point x="165" y="376" type="curve"/>
      <point x="66" y="402" type="line"/>
      <point x="92.4043" y="489.737"/>
      <point x="168.592" y="503"/>
      <point x="205" y="503" type="curve" smooth="yes"/>
      <point x="248.907" y="503"/>
      <point x="293.606" y="486.114"/>
      <point x="317" y="459" type="curve" smooth="yes"/>
      <point x="340.371" y="431.912"/>
      <point x="350" y="406"/>
      <point x="350" y="350" type="curve" smooth="yes"/>
      <point x="350" y="252" type="line"/>
      <point x="266" y="252" type="line" smooth="yes"/>
      <point x="236" y="252"/>
      <point x="207" y="242"/>
      <point x="207" y="195" type="curve" smooth="yes"/>
      <point x="207" y="168.216"/>
      <point x="229.503" y="140"/>
      <point x="283" y="140" type="curve"/>
      <point x="283" y="-5" type="line"/>
      <point x="155.558" y="-5"/>
      <point x="69" y="87.2324"/>
      <point x="69" y="192" type="curve" smooth="yes"/>
      <point x="69" y="212.029"/>
      <point x="69.5162" y="232.24"/>
      <point x="80.3096" y="252" type="curve"/>
    </contour>
    <contour>
      <point x="259" y="617" type="curve" smooth="yes"/>
      <point x="259" y="755" type="line"/>
      <point x="339" y="755" type="line"/>
      <point x="473.273" y="755"/>
      <point x="574" y="700"/>
      <point x="574" y="517" type="curve" smooth="yes"/>
      <point x="574" y="249" type="line"/>
      <point x="434" y="249" type="line"/>
      <point x="434" y="498" type="line" smooth="yes"/>
      <point x="434" y="577"/>
      <point x="417.252" y="616"/>
      <point x="339" y="616" type="curve"/>
      <point x="339" y="563.071"/>
      <point x="364.652" y="547.238"/>
      <point x="398" y="540" type="curve"/>
      <point x="398" y="454" type="line"/>
      <point x="294.619" y="473.607"/>
      <point x="259" y="544.038"/>
    </contour>
  </outline>
</glyph>
<glyph name="si_Nnga" format="1">
  <advance width="911"/>
  <unicode hex="0D9F"/>
  <outline>
    <contour>
      <point x="465" y="241" type="line"/>
      <point x="477" y="241" type="line" smooth="yes"/>
      <point x="529.527" y="241"/>
      <point x="531" y="205.037"/>
      <point x="531" y="188" type="curve" smooth="yes"/>
      <point x="531" y="170.963"/>
      <point x="529.527" y="135"/>
      <point x="477" y="135" type="curve" smooth="yes"/>
      <point x="477" y="-8" type="line"/>
      <point x="593.69" y="-8"/>
      <point x="655" y="45.3371"/>
      <point x="655" y="166" type="curve" smooth="yes"/>
      <point x="654.85" y="216" type="line" smooth="yes"/>
      <point x="655" y="325.407"/>
      <point x="601.086" y="347"/>
      <point x="565" y="347" type="curve"/>
      <point x="465" y="347" type="line"/>
    </contour>
    <contour>
      <point x="224.079" y="198" type="curve" smooth="yes"/>
      <point x="224.079" y="358" type="line" smooth="yes"/>
      <point x="224.42" y="474.262"/>
      <point x="281.704" y="564"/>
      <point x="421" y="564" type="curve"/>
      <point x="421" y="421" type="line"/>
      <point x="368.888" y="421"/>
      <point x="365" y="375.857"/>
      <point x="365" y="348" type="curve" smooth="yes"/>
      <point x="365" y="198" type="line" smooth="yes"/>
      <point x="365" y="173.959"/>
      <point x="368.887" y="135"/>
      <point x="421" y="135" type="curve"/>
      <point x="421" y="-8" type="line"/>
      <point x="281.704" y="-8"/>
      <point x="224.42" y="81.7376"/>
    </contour>
    <contour>
      <point x="684" y="-8" type="line"/>
      <point x="823.296" y="-8"/>
      <point x="880.58" y="81.7376"/>
      <point x="880.921" y="198" type="curve" smooth="yes"/>
      <point x="880.921" y="358" type="line" smooth="yes"/>
      <point x="880.58" y="474.262"/>
      <point x="823.296" y="564"/>
      <point x="684" y="564" type="curve"/>
      <point x="684" y="421" type="line"/>
      <point x="736.113" y="421"/>
      <point x="740" y="375.857"/>
      <point x="740" y="348" type="curve" smooth="yes"/>
      <point x="740" y="198" type="line" smooth="yes"/>
      <point x="740" y="173.959"/>
      <point x="736.113" y="135"/>
      <point x="684" y="135" type="curve"/>
    </contour>
    <contour>
      <point x="448" y="241" type="line" smooth="yes"/>
      <point x="587" y="240.5" type="line"/>
      <point x="586.835" y="350" type="line" smooth="yes"/>
      <point x="587.466" y="376.492"/>
      <point x="582.193" y="421"/>
      <point x="628" y="421" type="curve"/>
      <point x="628" y="564" type="line"/>
      <point x="484.062" y="564"/>
      <point x="448" y="468.007"/>
      <point x="448" y="350" type="curve" smooth="yes"/>
    </contour>
    <contour>
      <point x="30" y="209" type="curve" smooth="yes"/>
      <point x="30" y="287" type="line" smooth="yes"/>
      <point x="30" y="452"/>
      <point x="60.9931" y="564.245"/>
      <point x="265.051" y="564.245" type="curve" smooth="yes"/>
      <point x="316.372" y="564.245"/>
      <point x="369.684" y="564.082"/>
      <point x="421" y="564" type="curve"/>
      <point x="421" y="421" type="line"/>
      <point x="224" y="421" type="line" smooth="yes"/>
      <point x="174.46" y="421"/>
      <point x="166" y="376"/>
      <point x="166" y="287" type="curve" smooth="yes"/>
      <point x="166" y="209" type="line" smooth="yes"/>
      <point x="166" y="128.436"/>
      <point x="168.558" y="87.5967"/>
      <point x="233" y="11" type="curve"/>
      <point x="103.039" y="-29" type="line"/>
      <point x="43.3975" y="48.1836"/>
      <point x="30" y="118.444"/>
    </contour>
  </outline>
</glyph>
<glyph name="si_Ndja" format="1">
  <advance width="801"/>
  <unicode hex="0DA6"/>
  <outline>
    <contour>
      <point x="30" y="192" type="curve" smooth="yes"/>
      <point x="30" y="332" type="line" smooth="yes"/>
      <point x="30" y="497"/>
      <point x="170" y="616"/>
      <point x="327" y="556" type="curve" smooth="yes"/>
      <point x="321" y="553" type="line"/>
      <point x="321" y="422" type="line"/>
      <point x="298" y="430" type="line" smooth="yes"/>
      <point x="258" y="443"/>
      <point x="161" y="456"/>
      <point x="161" y="307" type="curve" smooth="yes"/>
      <point x="161" y="197" type="line" smooth="yes"/>
      <point x="161" y="116.436"/>
      <point x="171.558" y="75.5967"/>
      <point x="236" y="-1" type="curve"/>
      <point x="106.039" y="-41" type="line"/>
      <point x="46.3975" y="36.1836"/>
      <point x="30" y="101.444"/>
    </contour>
    <component base="si_Ja" xOffset="175"/>
  </outline>
</glyph>
<glyph name="si_Dda" format="1">
  <advance width="632"/>
  <unicode hex="0DA9"/>
  <outline>
    <contour>
      <point x="30" y="251" type="line"/>
      <point x="30" y="353" type="line"/>
      <point x="281" y="353" type="line"/>
      <point x="281" y="359" type="line"/>
      <point x="281.053" y="388.333"/>
      <point x="259.721" y="399"/>
      <point x="239" y="399" type="curve" smooth="yes"/>
      <point x="229.146" y="399"/>
      <point x="203.972" y="396"/>
      <point x="199" y="375" type="curve"/>
      <point x="100" y="401" type="line"/>
      <point x="126.404" y="488.737"/>
      <point x="202.592" y="502"/>
      <point x="239" y="502" type="curve" smooth="yes"/>
      <point x="282.907" y="502"/>
      <point x="327.607" y="485.114"/>
      <point x="351" y="458" type="curve" smooth="yes"/>
      <point x="374.371" y="430.912"/>
      <point x="384" y="404.667"/>
      <point x="384" y="349" type="curve" smooth="yes"/>
      <point x="384" y="251" type="line"/>
      <point x="242" y="251" type="line"/>
      <point x="211.475" y="251"/>
      <point x="207" y="231"/>
      <point x="207" y="219" type="curve"/>
      <point x="207" y="166" type="line" smooth="yes"/>
      <point x="207" y="154"/>
      <point x="216" y="132"/>
      <point x="246" y="132" type="curve" smooth="yes"/>
      <point x="276" y="132"/>
      <point x="284" y="152.875"/>
      <point x="284" y="166" type="curve" smooth="yes"/>
      <point x="284" y="202" type="line"/>
      <point x="384" y="202" type="line"/>
      <point x="384" y="166" type="line" smooth="yes"/>
      <point x="384" y="152.875"/>
      <point x="392" y="132"/>
      <point x="422" y="132" type="curve" smooth="yes"/>
      <point x="452" y="132"/>
      <point x="461" y="154"/>
      <point x="461" y="166" type="curve" smooth="yes"/>
      <point x="461" y="202" type="line"/>
      <point x="602" y="202" type="line"/>
      <point x="602" y="160" type="line" smooth="yes"/>
      <point x="602" y="58"/>
      <point x="535.381" y="-8"/>
      <point x="443" y="-8" type="curve" smooth="yes"/>
      <point x="409.152" y="-8"/>
      <point x="367.925" y="3.4668"/>
      <point x="339" y="35" type="curve"/>
      <point x="315.108" y="3.4668"/>
      <point x="278.959" y="-8"/>
      <point x="251" y="-8" type="curve" smooth="yes"/>
      <point x="145.768" y="-8"/>
      <point x="72" y="58"/>
      <point x="72" y="160" type="curve" smooth="yes"/>
      <point x="72" y="219" type="line"/>
      <point x="72" y="226"/>
      <point x="72" y="246"/>
      <point x="80" y="251" type="curve"/>
    </contour>
    <contour>
      <point x="75" y="566" type="curve"/>
      <point x="212" y="530" type="line"/>
      <point x="212" y="595.735"/>
      <point x="251.259" y="616.5"/>
      <point x="291.667" y="616.5" type="curve"/>
      <point x="302" y="616.5" type="line"/>
      <point x="302" y="755" type="line"/>
      <point x="291.667" y="755" type="line"/>
      <point x="185.127" y="755"/>
      <point x="75" y="672.126"/>
    </contour>
    <contour>
      <point x="358" y="616" type="line"/>
      <point x="358" y="755" type="line"/>
      <point x="368" y="755" type="line"/>
      <point x="501.701" y="755"/>
      <point x="602" y="699.969"/>
      <point x="602" y="520" type="curve" smooth="yes"/>
      <point x="602" y="200" type="line"/>
      <point x="461" y="200" type="line"/>
      <point x="461" y="498" type="line" smooth="yes"/>
      <point x="461" y="576.997"/>
      <point x="444.604" y="616"/>
      <point x="368" y="616" type="curve"/>
    </contour>
  </outline>
</glyph>
<glyph name="si_Tha" format="1">
  <advance width="561"/>
  <unicode hex="0DAE"/>
  <outline>
    <contour>
      <point x="296" y="-5" type="line"/>
      <point x="450.968" y="-4.83398"/>
      <point x="531" y="78.4932"/>
      <point x="531" y="250" type="curve" smooth="yes"/>
      <point x="391" y="250" type="line" smooth="yes"/>
      <point x="391" y="153.522"/>
      <point x="338.411" y="140"/>
      <point x="296" y="140" type="curve"/>
    </contour>
    <contour>
      <point x="216" y="617" type="line" smooth="yes"/>
      <point x="216" y="544.038"/>
      <point x="251.619" y="473.607"/>
      <point x="355" y="454" type="curve"/>
      <point x="355" y="540" type="line"/>
      <point x="321.652" y="547.238"/>
      <point x="296" y="563.071"/>
      <point x="296" y="616" type="curve"/>
      <point x="374.252" y="616"/>
      <point x="391" y="577"/>
      <point x="391" y="498" type="curve" smooth="yes"/>
      <point x="391" y="241" type="line"/>
      <point x="531" y="241" type="line"/>
      <point x="531" y="517" type="line" smooth="yes"/>
      <point x="531" y="700"/>
      <point x="430.273" y="755"/>
      <point x="296" y="755" type="curve"/>
      <point x="216" y="755" type="line"/>
    </contour>
    <contour>
      <point x="29.999" y="261.926" type="line" smooth="yes"/>
      <point x="29.999" y="343.693"/>
      <point x="44.667" y="474"/>
      <point x="240.667" y="474" type="curve"/>
      <point x="240.667" y="336" type="line"/>
      <point x="200.667" y="336"/>
      <point x="168" y="322"/>
      <point x="168" y="262" type="curve" smooth="yes"/>
      <point x="168" y="222" type="line" smooth="yes"/>
      <point x="168" y="184.846"/>
      <point x="189" y="140"/>
      <point x="240.667" y="140" type="curve"/>
      <point x="240.667" y="-5" type="line"/>
      <point x="96.667" y="-5"/>
      <point x="30" y="116.58"/>
      <point x="30" y="208" type="curve" smooth="yes"/>
    </contour>
  </outline>
</glyph>
<glyph name="si_Da" format="1">
  <advance width="522"/>
  <unicode hex="0DAF"/>
  <outline>
    <contour>
      <point x="294" y="0" type="curve"/>
      <point x="294" y="136" type="line"/>
      <point x="326.728" y="136"/>
      <point x="356" y="140"/>
      <point x="369" y="172" type="curve"/>
      <point x="497" y="138" type="line"/>
      <point x="472" y="52"/>
      <point x="386.826" y="0.131836"/>
    </contour>
    <contour>
      <point x="257" y="0" type="line"/>
      <point x="257" y="136" type="line"/>
      <point x="294" y="136" type="line"/>
      <point x="294" y="0" type="line"/>
    </contour>
    <contour>
      <point x="30" y="198" type="curve" smooth="yes"/>
      <point x="30" y="334.29"/>
      <point x="123.044" y="402"/>
      <point x="256" y="402" type="curve" smooth="yes"/>
      <point x="313" y="402" type="line"/>
      <point x="313" y="473.444"/>
      <point x="192" y="471"/>
      <point x="176" y="420" type="curve"/>
      <point x="58" y="459" type="line"/>
      <point x="104.718" y="636.689"/>
      <point x="442" y="614.8"/>
      <point x="442" y="399" type="curve" smooth="yes"/>
      <point x="442" y="263" type="line"/>
      <point x="256" y="263" type="line" smooth="yes"/>
      <point x="217" y="263"/>
      <point x="173" y="257.19"/>
      <point x="173" y="198" type="curve"/>
      <point x="173" y="146"/>
      <point x="220" y="136"/>
      <point x="257" y="136" type="curve" smooth="yes"/>
      <point x="257" y="0" type="line" smooth="yes"/>
      <point x="137" y="0"/>
      <point x="30" y="59.3916"/>
    </contour>
    <contour>
      <point x="183" y="-45" type="line"/>
      <point x="183" y="-136.261"/>
      <point x="249.999" y="-204"/>
      <point x="369" y="-204" type="curve" smooth="yes"/>
      <point x="474.502" y="-204"/>
      <point x="530.12" y="-148.452"/>
      <point x="552" y="-81" type="curve"/>
      <point x="419" y="-47" type="line"/>
      <point x="413.828" y="-67.3714"/>
      <point x="389.69" y="-78"/>
      <point x="369" y="-78" type="curve" smooth="yes"/>
      <point x="340.289" y="-78"/>
      <point x="320" y="-61.149"/>
      <point x="320" y="-45" type="curve"/>
    </contour>
  </outline>
</glyph>
<glyph name="si_Na" format="1">
  <advance width="758"/>
  <unicode hex="0DB1"/>
  <outline>
    <contour>
      <point x="32" y="439" type="line"/>
      <point x="46" y="537"/>
      <point x="138.521" y="567"/>
      <point x="200" y="567" type="curve" smooth="yes"/>
      <point x="268.511" y="567"/>
      <point x="331" y="522"/>
      <point x="331" y="506" type="curve"/>
      <point x="247" y="402" type="line"/>
      <point x="247" y="437"/>
      <point x="216.169" y="446"/>
      <point x="200" y="446" type="curve" smooth="yes"/>
      <point x="166.069" y="446"/>
      <point x="149" y="422.741"/>
      <point x="149" y="402" type="curve"/>
    </contour>
    <contour>
      <point x="125" y="165" type="line"/>
      <point x="125" y="304" type="line" smooth="yes"/>
      <point x="149.771" y="303.963" type="line" smooth="yes"/>
      <point x="176.32" y="303.963"/>
      <point x="251.206" y="435.953"/>
      <point x="283.456" y="479" type="curve"/>
      <point x="325.869" y="542.88"/>
      <point x="400.3" y="573.748"/>
      <point x="476.268" y="573.748" type="curve" smooth="yes"/>
      <point x="600.092" y="573.748"/>
      <point x="728" y="491.739"/>
      <point x="728" y="337" type="curve" smooth="yes"/>
      <point x="728" y="198" type="line" smooth="yes"/>
      <point x="727.58" y="81.7373"/>
      <point x="671.296" y="-8"/>
      <point x="532" y="-8" type="curve"/>
      <point x="532" y="135" type="line"/>
      <point x="584.112" y="135"/>
      <point x="588" y="173.959"/>
      <point x="588" y="198" type="curve" smooth="yes"/>
      <point x="588" y="317" type="line" smooth="yes"/>
      <point x="588" y="391.167"/>
      <point x="530.397" y="436.016"/>
      <point x="470.745" y="436.016" type="curve" smooth="yes"/>
      <point x="434.879" y="436.016"/>
      <point x="399.422" y="418.933"/>
      <point x="373" y="384" type="curve" smooth="yes"/>
      <point x="295.093" y="281" type="line"/>
      <point x="239.657" y="208"/>
      <point x="201.849" y="165"/>
      <point x="154" y="165" type="curve"/>
    </contour>
    <contour>
      <point x="30" y="256" type="curve"/>
      <point x="30" y="344" type="line"/>
      <point x="148" y="344" type="line"/>
      <point x="148" y="313"/>
      <point x="148" y="301"/>
      <point x="148" y="270" type="curve" smooth="yes"/>
      <point x="148" y="150.343"/>
      <point x="208.982" y="127"/>
      <point x="278" y="127" type="curve" smooth="yes"/>
      <point x="358.634" y="127"/>
      <point x="389" y="218"/>
      <point x="336" y="251" type="curve"/>
      <point x="412.215" y="354.312" type="line"/>
      <point x="569" y="271"/>
      <point x="518.12" y="-7.85062"/>
      <point x="282" y="-8" type="curve" smooth="yes"/>
      <point x="134" y="-8.09363"/>
      <point x="30" y="85.0723"/>
    </contour>
  </outline>
</glyph>
<glyph name="si_Ba" format="1">
  <advance width="609"/>
  <unicode hex="0DB6"/>
  <outline>
    <contour>
      <point x="324" y="616" type="line"/>
      <point x="324" y="755" type="line"/>
      <point x="345" y="755" type="line"/>
      <point x="478.701" y="755"/>
      <point x="579" y="679.969"/>
      <point x="579" y="500" type="curve" smooth="yes"/>
      <point x="579" y="200" type="line"/>
      <point x="439" y="200" type="line"/>
      <point x="439" y="478" type="line" smooth="yes"/>
      <point x="439" y="556.997"/>
      <point x="422.428" y="616"/>
      <point x="345" y="616" type="curve"/>
    </contour>
    <contour>
      <point x="41" y="566" type="curve"/>
      <point x="178" y="530" type="line"/>
      <point x="178" y="595.735"/>
      <point x="217.259" y="616.5"/>
      <point x="257.667" y="616.5" type="curve"/>
      <point x="268" y="616.5" type="line"/>
      <point x="268" y="755" type="line"/>
      <point x="257.667" y="755" type="line"/>
      <point x="151.127" y="755"/>
      <point x="41" y="672.126"/>
    </contour>
    <contour>
      <point x="30" y="187" type="curve" smooth="yes"/>
      <point x="30" y="283" type="line" smooth="yes"/>
      <point x="30" y="493.932"/>
      <point x="382" y="525.915"/>
      <point x="382" y="272" type="curve" smooth="yes"/>
      <point x="382" y="174" type="line" smooth="yes"/>
      <point x="382" y="125.535"/>
      <point x="439" y="125.58"/>
      <point x="439" y="174" type="curve"/>
      <point x="439" y="214" type="line"/>
      <point x="579" y="214" type="line"/>
      <point x="579" y="174" type="line"/>
      <point x="579" y="-59.7227"/>
      <point x="247" y="-64.7982"/>
      <point x="247" y="138" type="curve" smooth="yes"/>
      <point x="247" y="267" type="line" smooth="yes"/>
      <point x="247" y="328.615"/>
      <point x="162.069" y="328.811"/>
      <point x="162" y="267" type="curve" smooth="yes"/>
      <point x="161.917" y="193" type="line" smooth="yes"/>
      <point x="162" y="151"/>
      <point x="180.457" y="140"/>
      <point x="211" y="140" type="curve"/>
      <point x="211" y="0" type="line"/>
      <point x="91.1055" y="0"/>
      <point x="30" y="55"/>
    </contour>
  </outline>
</glyph>
<glyph name="si_Bha" format="1">
  <advance width="754"/>
  <unicode hex="0DB7"/>
  <outline>
    <contour>
      <point x="30" y="297" type="line"/>
      <point x="241" y="297" type="line"/>
      <point x="241" y="415" type="line"/>
      <point x="30" y="415" type="line"/>
    </contour>
    <contour>
      <point x="68.0791" y="198" type="line" smooth="yes"/>
      <point x="68.4199" y="81.7373"/>
      <point x="125.704" y="-8"/>
      <point x="265" y="-8" type="curve"/>
      <point x="265" y="135" type="line"/>
      <point x="212.888" y="135"/>
      <point x="209" y="174.577"/>
      <point x="209" y="199" type="curve" smooth="yes"/>
      <point x="209" y="243" type="line" smooth="yes"/>
      <point x="209" y="263.607"/>
      <point x="212.888" y="297"/>
      <point x="265" y="297" type="curve"/>
      <point x="305" y="297" type="line"/>
      <point x="305" y="412" type="line"/>
      <point x="265" y="412" type="line"/>
      <point x="145.704" y="412"/>
      <point x="68.4199" y="343.172"/>
      <point x="68.0791" y="254" type="curve" smooth="yes"/>
    </contour>
    <contour>
      <point x="308" y="241" type="line"/>
      <point x="320" y="241" type="line" smooth="yes"/>
      <point x="372.527" y="241"/>
      <point x="374" y="205.037"/>
      <point x="374" y="188" type="curve" smooth="yes"/>
      <point x="374" y="170.963"/>
      <point x="372.527" y="135"/>
      <point x="320" y="135" type="curve" smooth="yes"/>
      <point x="320" y="-8" type="line"/>
      <point x="436.689" y="-8"/>
      <point x="498" y="45.3369"/>
      <point x="498" y="166" type="curve" smooth="yes"/>
      <point x="497.85" y="216" type="line" smooth="yes"/>
      <point x="498" y="325.407"/>
      <point x="444.086" y="347"/>
      <point x="408" y="347" type="curve"/>
      <point x="308" y="347" type="line"/>
    </contour>
    <contour>
      <point x="527" y="-8" type="line"/>
      <point x="666.296" y="-8"/>
      <point x="723.58" y="81.7373"/>
      <point x="723.921" y="198" type="curve" smooth="yes"/>
      <point x="723.921" y="358" type="line" smooth="yes"/>
      <point x="723.58" y="474.263"/>
      <point x="666.296" y="564"/>
      <point x="527" y="564" type="curve"/>
      <point x="527" y="421" type="line"/>
      <point x="579.112" y="421"/>
      <point x="583" y="375.857"/>
      <point x="583" y="348" type="curve" smooth="yes"/>
      <point x="583" y="198" type="line" smooth="yes"/>
      <point x="583" y="173.959"/>
      <point x="579.112" y="135"/>
      <point x="527" y="135" type="curve"/>
    </contour>
    <contour>
      <point x="291" y="241" type="line" smooth="yes"/>
      <point x="430" y="240.5" type="line"/>
      <point x="429.835" y="350" type="line" smooth="yes"/>
      <point x="430.466" y="376.492"/>
      <point x="425.192" y="421"/>
      <point x="471" y="421" type="curve"/>
      <point x="471" y="564" type="line"/>
      <point x="327.062" y="564"/>
      <point x="291" y="468.007"/>
      <point x="291" y="350" type="curve" smooth="yes"/>
    </contour>
    <contour>
      <point x="60" y="463.352" type="curve"/>
      <point x="159" y="437.352" type="line"/>
      <point x="162.712" y="454.054"/>
      <point x="180.244" y="461.951"/>
      <point x="198.15" y="461.951" type="curve" smooth="yes"/>
      <point x="219.314" y="461.951"/>
      <point x="241" y="450.918"/>
      <point x="241" y="430.352" type="curve" smooth="yes"/>
      <point x="241" y="400.352" type="line"/>
      <point x="343.999" y="401" type="line"/>
      <point x="344" y="433.352" type="line" smooth="yes"/>
      <point x="344" y="433.356" type="line" smooth="yes"/>
      <point x="344" y="516.171"/>
      <point x="272.971" y="563.617"/>
      <point x="200.772" y="563.617" type="curve" smooth="yes"/>
      <point x="142.161" y="563.617"/>
      <point x="82.7783" y="532.349"/>
    </contour>
  </outline>
</glyph>
<glyph name="si_Ma" format="1">
  <advance width="600"/>
  <unicode hex="0DB8"/>
  <outline>
    <contour>
      <point x="318" y="-3" type="move" name="si_rakar"/>
    </contour>
    <contour>
      <point x="570" y="498" type="line" smooth="yes"/>
      <point x="570" y="621.855"/>
      <point x="527.505" y="754"/>
      <point x="317" y="754" type="curve"/>
      <point x="317" y="615" type="line"/>
      <point x="385.414" y="615"/>
      <point x="430" y="603"/>
      <point x="430" y="498" type="curve" smooth="yes"/>
      <point x="430" y="252" type="line" smooth="yes"/>
      <point x="430" y="147"/>
      <point x="385.414" y="135"/>
      <point x="317" y="135" type="curve"/>
      <point x="317" y="-5" type="line"/>
      <point x="527.505" y="-5"/>
      <point x="570" y="127"/>
      <point x="570" y="252" type="curve" smooth="yes"/>
    </contour>
    <contour>
      <point x="30" y="252" type="curve" smooth="yes"/>
      <point x="30" y="299" type="line" smooth="yes"/>
      <point x="30" y="512.997"/>
      <point x="272" y="518.105"/>
      <point x="272" y="364" type="curve" smooth="yes"/>
      <point x="272" y="348" type="line" smooth="yes"/>
      <point x="272" y="325.379"/>
      <point x="303" y="325.574"/>
      <point x="303" y="348" type="curve" smooth="yes"/>
      <point x="303" y="469" type="line"/>
      <point x="395" y="469" type="line"/>
      <point x="395" y="340" type="line" smooth="yes"/>
      <point x="395" y="263.042"/>
      <point x="342.455" y="228.663"/>
      <point x="290.44" y="228.663" type="curve" smooth="yes"/>
      <point x="239.466" y="228.663"/>
      <point x="189" y="261.682"/>
      <point x="189" y="320" type="curve" smooth="yes"/>
      <point x="189" y="328" type="line" smooth="yes"/>
      <point x="189" y="341.305"/>
      <point x="181.157" y="348.08"/>
      <point x="173.361" y="348.08" type="curve" smooth="yes"/>
      <point x="165.658" y="348.08"/>
      <point x="158" y="341"/>
      <point x="158" y="328" type="curve" smooth="yes"/>
      <point x="158" y="252" type="line" smooth="yes"/>
      <point x="158" y="153.848"/>
      <point x="200.99" y="135"/>
      <point x="260.667" y="135" type="curve"/>
      <point x="260.667" y="-5" type="line"/>
      <point x="64.9495" y="-5"/>
      <point x="30" y="143"/>
    </contour>
    <contour>
      <point x="34" y="565" type="curve"/>
      <point x="171" y="529" type="line"/>
      <point x="171" y="600.551"/>
      <point x="213.009" y="615.5"/>
      <point x="261" y="615.5" type="curve"/>
      <point x="261" y="754" type="line"/>
      <point x="147.947" y="754"/>
      <point x="34" y="676.959"/>
    </contour>
  </outline>
</glyph>
<glyph name="si_Ya" format="1">
  <advance width="655"/>
  <unicode hex="0DBA"/>
  <outline>
    <contour>
      <point x="30" y="160" type="curve" smooth="yes"/>
      <point x="30" y="202" type="line"/>
      <point x="169" y="202" type="line"/>
      <point x="169" y="171" type="line" smooth="yes"/>
      <point x="169" y="144.934"/>
      <point x="192.006" y="131.396"/>
      <point x="215.009" y="131.396" type="curve" smooth="yes"/>
      <point x="238.006" y="131.396"/>
      <point x="261" y="144.928"/>
      <point x="261" y="173" type="curve" smooth="yes"/>
      <point x="261" y="202" type="line"/>
      <point x="389" y="202" type="line"/>
      <point x="389" y="173" type="line" smooth="yes"/>
      <point x="389" y="145.086"/>
      <point x="412.285" y="131.383"/>
      <point x="435.427" y="131.383" type="curve" smooth="yes"/>
      <point x="458.284" y="131.383"/>
      <point x="481" y="144.751"/>
      <point x="481" y="171" type="curve" smooth="yes"/>
      <point x="481" y="202" type="line"/>
      <point x="620" y="202" type="line"/>
      <point x="620" y="160" type="line" smooth="yes"/>
      <point x="620" y="50"/>
      <point x="548.025" y="-8"/>
      <point x="438" y="-8" type="curve" smooth="yes"/>
      <point x="395.055" y="-8"/>
      <point x="351.962" y="3.73333"/>
      <point x="322" y="36" type="curve"/>
      <point x="293.071" y="3.73333"/>
      <point x="254.464" y="-8"/>
      <point x="213" y="-8" type="curve" smooth="yes"/>
      <point x="104.127" y="-8"/>
      <point x="30" y="58"/>
    </contour>
    <contour>
      <point x="293" y="283" type="line"/>
      <point x="293" y="366" type="line" smooth="yes"/>
      <point x="293" y="489.777"/>
      <point x="340.894" y="566"/>
      <point x="467" y="566" type="curve" smooth="yes"/>
      <point x="522.748" y="566"/>
      <point x="589" y="543"/>
      <point x="625" y="458" type="curve"/>
      <point x="515" y="421" type="line"/>
      <point x="503.118" y="441.996"/>
      <point x="485.367" y="445.799"/>
      <point x="467" y="445.799" type="curve" smooth="yes"/>
      <point x="443.18" y="445.799"/>
      <point x="423" y="433.227"/>
      <point x="423" y="402" type="curve"/>
      <point x="479" y="402" type="line" smooth="yes"/>
      <point x="587" y="402"/>
      <point x="620" y="339"/>
      <point x="620" y="269" type="curve" smooth="yes"/>
      <point x="620" y="251" type="line"/>
      <point x="480" y="251" type="line"/>
      <point x="480" y="254" type="line" smooth="yes"/>
      <point x="480" y="268"/>
      <point x="478" y="283"/>
      <point x="437" y="283" type="curve" smooth="yes"/>
    </contour>
    <contour>
      <point x="30" y="251" type="line"/>
      <point x="30" y="340" type="line" smooth="yes"/>
      <point x="30" y="493.265"/>
      <point x="132.283" y="563"/>
      <point x="248" y="563" type="curve" smooth="yes"/>
      <point x="265" y="563" type="line"/>
      <point x="265" y="433" type="line"/>
      <point x="245" y="433" type="line" smooth="yes"/>
      <point x="191.205" y="433"/>
      <point x="169" y="389.938"/>
      <point x="169" y="317" type="curve" smooth="yes"/>
      <point x="169" y="251" type="line"/>
    </contour>
  </outline>
</glyph>
<glyph name="si_Ra" format="1">
  <advance width="545"/>
  <unicode hex="0DBB"/>
  <outline>
    <contour>
      <point x="30" y="235" type="curve" smooth="yes"/>
      <point x="30" y="427" type="line" smooth="yes"/>
      <point x="30" y="478"/>
      <point x="31" y="559.142"/>
      <point x="123" y="634.002" type="curve" smooth="yes"/>
      <point x="318" y="793" type="line"/>
      <point x="483" y="749" type="line"/>
      <point x="237" y="549" type="line" smooth="yes"/>
      <point x="162" y="489"/>
      <point x="170" y="487"/>
      <point x="170" y="420" type="curve" smooth="yes"/>
      <point x="170" y="235" type="line" smooth="yes"/>
      <point x="170" y="167"/>
      <point x="184.222" y="139"/>
      <point x="244" y="139" type="curve"/>
      <point x="244" y="-6" type="line"/>
      <point x="141.578" y="-6"/>
      <point x="30" y="51.1748"/>
    </contour>
    <contour>
      <point x="208.926" y="456" type="line"/>
      <point x="342" y="564" type="line"/>
      <point x="365" y="563.981" type="line"/>
      <point x="477.509" y="563.953"/>
      <point x="515" y="491.189"/>
      <point x="515" y="328" type="curve" smooth="yes"/>
      <point x="515" y="235" type="line" smooth="yes"/>
      <point x="515" y="42.8447"/>
      <point x="412.532" y="-5"/>
      <point x="300" y="-5" type="curve"/>
      <point x="300" y="139" type="line"/>
      <point x="360.586" y="139"/>
      <point x="375" y="166.591"/>
      <point x="375" y="235" type="curve" smooth="yes"/>
      <point x="375" y="322" type="line" smooth="yes"/>
      <point x="375" y="395.112"/>
      <point x="375" y="426"/>
      <point x="300" y="426" type="curve" smooth="yes"/>
      <point x="209" y="426" type="line"/>
    </contour>
  </outline>
</glyph>
<glyph name="si_MatraIi" format="1">
  <advance width="606"/>
  <unicode hex="0DD3"/>
  <outline>
    <contour>
      <point x="340" y="671" type="curve" smooth="yes"/>
      <point x="340" y="736"/>
      <point x="393" y="789"/>
      <point x="458" y="789" type="curve" smooth="yes"/>
      <point x="523" y="789"/>
      <point x="576" y="736"/>
      <point x="576" y="671" type="curve" smooth="yes"/>
      <point x="576" y="606"/>
      <point x="523" y="553"/>
      <point x="458" y="553" type="curve" smooth="yes"/>
      <point x="393" y="553"/>
      <point x="340" y="606"/>
    </contour>
    <contour>
      <point x="30" y="602" type="line"/>
      <point x="30" y="630" type="line"/>
      <point x="29.623" y="723.409"/>
      <point x="106.741" y="789"/>
      <point x="206" y="789" type="curve"/>
      <point x="458" y="789" type="line"/>
      <point x="458" y="659" type="line" smooth="yes"/>
      <point x="222" y="659" type="line"/>
      <point x="195.143" y="658"/>
      <point x="160" y="654.112"/>
      <point x="160" y="602" type="curve"/>
    </contour>
  </outline>
</glyph>
<glyph name="si_kundaliya" format="1">
  <advance width="1000"/>
  <unicode hex="0DF4"/>
  <outline>
    <contour>
      <point x="14" y="0" type="line"/>
      <point x="134" y="224" type="line"/>
      <point x="200" y="176" type="line"/>
      <point x="298" y="403" type="line"/>
      <point x="382" y="334" type="line"/>
      <point x="476" y="550" type="line"/>
      <point x="544" y="414" type="line"/>
      <point x="626" y="468" type="line"/>
      <point x="638" y="264" type="line"/>
      <point x="796" y="366" type="line"/>
      <point x="815" y="174" type="line"/>
      <point x="960" y="228" type="line"/>
      <point x="952" y="0" type="line"/>
      <point x="828" y="0" type="line"/>
      <point x="852" y="102" type="line"/>
      <point x="742" y="0" type="line"/>
      <point x="688" y="188" type="line"/>
      <point x="530" y="0" type="line"/>
      <point x="522" y="266" type="line"/>
      <point x="410" y="0" type="line"/>
      <point x="321.5" y="208" type="line"/>
      <point x="232" y="10" type="line"/>
      <point x="150" y="70" type="line"/>
      <point x="114" y="0" type="line"/>
    </contour>
  </outline>
</glyph>
<glyph name="zwnj" format="1">
  <advance width="0"/>
  <unicode hex="200C"/>
  <outline>
    <contour>
      <point x="-30" y="9" type="line"/>
      <point x="-30" y="761" type="line"/>
      <point x="30" y="761" type="line"/>
      <point x="30" y="9" type="line"/>
    </contour>
  </outline>
</glyph>
<glyph name="uni2206" format="1">
  <advance width="414"/>
  <unicode hex="2206"/>
  <outline>
    <contour>
      <point x="-8" y="0" type="line"/>
      <point x="419" y="0" type="line"/>
      <point x="238" y="706" type="line"/>
      <point x="174" y="706" type="line"/>
    </contour>
    <contour>
      <point x="113" y="97.125" type="line"/>
      <point x="206" y="459" type="line"/>
      <point x="299" y="97.125" type="line"/>
    </contour>
  </outline>
</glyph>
<glyph name="si_GUu" format="1">
  <advance width="717"/>
  <outline>
    <contour>
      <point x="490" y="201" type="line"/>
      <point x="530.846" y="201"/>
      <point x="546.118" y="216.393"/>
      <point x="546" y="249" type="curve"/>
      <point x="687" y="249" type="line"/>
      <point x="687.021" y="236.393"/>
      <point x="686.555" y="213"/>
      <point x="677" y="201" type="curve"/>
    </contour>
    <contour>
      <point x="271" y="241" type="line"/>
      <point x="283" y="241" type="line" smooth="yes"/>
      <point x="335.527" y="241"/>
      <point x="337" y="205.037"/>
      <point x="337" y="188" type="curve" smooth="yes"/>
      <point x="337" y="170.963"/>
      <point x="335.527" y="135"/>
      <point x="283" y="135" type="curve" smooth="yes"/>
      <point x="283" y="-8" type="line"/>
      <point x="399.689" y="-8"/>
      <point x="461" y="45.3369"/>
      <point x="461" y="166" type="curve" smooth="yes"/>
      <point x="460.85" y="216" type="line" smooth="yes"/>
      <point x="461" y="325.407"/>
      <point x="407.086" y="347"/>
      <point x="371" y="347" type="curve"/>
      <point x="271" y="347" type="line"/>
    </contour>
    <contour>
      <point x="30.0791" y="198" type="curve" smooth="yes"/>
      <point x="30.0791" y="358" type="line" smooth="yes"/>
      <point x="30.4199" y="474.263"/>
      <point x="87.7041" y="564"/>
      <point x="227" y="564" type="curve"/>
      <point x="227" y="421" type="line"/>
      <point x="174.888" y="421"/>
      <point x="171" y="375.857"/>
      <point x="171" y="348" type="curve" smooth="yes"/>
      <point x="171" y="198" type="line" smooth="yes"/>
      <point x="171" y="173.959"/>
      <point x="174.888" y="135"/>
      <point x="227" y="135" type="curve"/>
      <point x="227" y="-8" type="line"/>
      <point x="87.7041" y="-8"/>
      <point x="30.4199" y="81.7373"/>
    </contour>
    <contour>
      <point x="490" y="421" type="curve"/>
      <point x="490" y="564" type="line"/>
      <point x="629.296" y="564"/>
      <point x="686.58" y="474.263"/>
      <point x="686.921" y="358" type="curve" smooth="yes"/>
      <point x="686.921" y="247" type="line"/>
      <point x="686.921" y="198" type="line" smooth="yes"/>
      <point x="546" y="198" type="line" smooth="yes"/>
      <point x="546" y="348" type="line" smooth="yes"/>
      <point x="546" y="375.857"/>
      <point x="542.112" y="421"/>
    </contour>
    <contour>
      <point x="254" y="241" type="line" smooth="yes"/>
      <point x="393" y="240.5" type="line"/>
      <point x="392.835" y="350" type="line" smooth="yes"/>
      <point x="393.466" y="376.492"/>
      <point x="388.192" y="421"/>
      <point x="434" y="421" type="curve"/>
      <point x="434" y="564" type="line"/>
      <point x="290.062" y="564"/>
      <point x="254" y="468.007"/>
      <point x="254" y="350" type="curve" smooth="yes"/>
    </contour>
    <component base="si_MatraUu.alt" xOffset="460"/>
  </outline>
</glyph>
<glyph name="si_Jh.halant" format="1">
  <advance width="1138"/>
  <outline>
    <contour>
      <point x="30" y="439" type="line"/>
      <point x="44" y="537"/>
      <point x="136.521" y="567"/>
      <point x="198" y="567" type="curve" smooth="yes"/>
      <point x="270.695" y="567"/>
      <point x="320" y="533"/>
      <point x="337" y="502" type="curve"/>
      <point x="245" y="402" type="line"/>
      <point x="245" y="437"/>
      <point x="214.169" y="446"/>
      <point x="198" y="446" type="curve" smooth="yes"/>
      <point x="164.069" y="446"/>
      <point x="147" y="422.741"/>
      <point x="147" y="402" type="curve"/>
    </contour>
    <contour>
      <point x="30" y="160" type="curve"/>
      <point x="147" y="255" type="line"/>
      <point x="165.91" y="239.066"/>
      <point x="180.861" y="220.713"/>
      <point x="180.88" y="202" type="curve"/>
      <point x="181" y="160" type="line" smooth="yes"/>
      <point x="181.107" y="122.479"/>
      <point x="240" y="122.546"/>
      <point x="240" y="160" type="curve" smooth="yes"/>
      <point x="240" y="202" type="line"/>
      <point x="339.88" y="202" type="line"/>
      <point x="340" y="162" type="line" smooth="yes"/>
      <point x="340.122" y="121.477"/>
      <point x="400" y="121.548"/>
      <point x="400" y="162" type="curve" smooth="yes"/>
      <point x="400.004" y="202.128" type="line" smooth="yes"/>
      <point x="400.004" y="233.327"/>
      <point x="393.873" y="258.737"/>
      <point x="351" y="276" type="curve"/>
      <point x="448.224" y="354.096" type="line"/>
      <point x="511.602" y="326.931"/>
      <point x="529" y="279.827"/>
      <point x="529" y="218" type="curve" smooth="yes"/>
      <point x="529" y="136" type="line" smooth="yes"/>
      <point x="529" y="2.60352"/>
      <point x="363.235" y="-52.7676"/>
      <point x="290" y="36" type="curve"/>
      <point x="229.787" y="-51.9111"/>
      <point x="64.9819" y="8.54395"/>
      <point x="65" y="106" type="curve" smooth="yes"/>
      <point x="65.0029" y="121.756" type="line" smooth="yes"/>
      <point x="65.0029" y="141.945"/>
      <point x="64.3154" y="161.906"/>
      <point x="41.2734" y="161.906" type="curve" smooth="yes"/>
      <point x="37.9902" y="161.906"/>
      <point x="34.2529" y="161.3"/>
    </contour>
    <contour>
      <point x="30" y="160" type="line"/>
      <point x="30" y="259" type="line"/>
      <point x="335" y="509" type="line"/>
      <point x="512.717" y="640.303"/>
      <point x="808" y="575"/>
      <point x="808" y="384" type="curve"/>
      <point x="671" y="369" type="line"/>
      <point x="651" y="451"/>
      <point x="509" y="469"/>
      <point x="425" y="400" type="curve"/>
      <point x="155" y="181.392" type="line"/>
    </contour>
    <contour>
      <point x="574.999" y="261.926" type="line" smooth="yes"/>
      <point x="574.999" y="343.692"/>
      <point x="589.667" y="454"/>
      <point x="785.667" y="454" type="curve"/>
      <point x="808" y="384" type="line"/>
      <point x="808" y="336" type="line"/>
      <point x="785.667" y="336" type="line"/>
      <point x="745.667" y="336"/>
      <point x="713" y="322"/>
      <point x="713" y="262" type="curve" smooth="yes"/>
      <point x="713" y="166" type="line" smooth="yes"/>
      <point x="713" y="154"/>
      <point x="722" y="132"/>
      <point x="752" y="132" type="curve" smooth="yes"/>
      <point x="782" y="132"/>
      <point x="790" y="152.875"/>
      <point x="790" y="166" type="curve" smooth="yes"/>
      <point x="790" y="202" type="line"/>
      <point x="890" y="202" type="line"/>
      <point x="890" y="166" type="line" smooth="yes"/>
      <point x="890" y="152.875"/>
      <point x="898" y="132"/>
      <point x="928" y="132" type="curve" smooth="yes"/>
      <point x="958" y="132"/>
      <point x="967" y="154"/>
      <point x="967" y="166" type="curve" smooth="yes"/>
      <point x="967" y="202" type="line"/>
      <point x="1108" y="202" type="line"/>
      <point x="1108" y="160" type="line" smooth="yes"/>
      <point x="1108" y="58"/>
      <point x="1041.38" y="-8"/>
      <point x="949" y="-8" type="curve" smooth="yes"/>
      <point x="915.151" y="-8"/>
      <point x="873.925" y="3.4668"/>
      <point x="845" y="35" type="curve"/>
      <point x="821.108" y="3.4668"/>
      <point x="784.959" y="-8"/>
      <point x="757" y="-8" type="curve" smooth="yes"/>
      <point x="650.004" y="-8"/>
      <point x="575" y="58"/>
      <point x="575" y="160" type="curve" smooth="yes"/>
    </contour>
    <contour>
      <point x="876.667" y="522" type="curve"/>
      <point x="876.667" y="652" type="line"/>
      <point x="1036.3" y="652"/>
      <point x="1108" y="590"/>
      <point x="1108" y="474" type="curve" smooth="yes"/>
      <point x="1108" y="200" type="line"/>
      <point x="967" y="200" type="line"/>
      <point x="967" y="455" type="line" smooth="yes"/>
      <point x="967" y="514"/>
      <point x="926.403" y="522"/>
    </contour>
    <contour>
      <point x="876.167" y="703" type="line"/>
      <point x="876.167" y="819" type="line"/>
      <point x="921.667" y="819" type="line" smooth="yes"/>
      <point x="1070.03" y="819"/>
      <point x="1095" y="756"/>
      <point x="1095" y="673" type="curve"/>
      <point x="959.667" y="673" type="line"/>
      <point x="959.667" y="700"/>
      <point x="935" y="703"/>
      <point x="889.667" y="703" type="curve" smooth="yes"/>
    </contour>
    <contour>
      <point x="644" y="652" type="curve"/>
      <point x="603" y="652"/>
      <point x="562.81" y="819"/>
      <point x="779" y="819" type="curve" smooth="yes"/>
      <point x="820.667" y="819" type="line"/>
      <point x="820.667" y="703" type="line"/>
      <point x="787.667" y="703" type="line" smooth="yes"/>
      <point x="758.729" y="703"/>
      <point x="752.409" y="688.847"/>
      <point x="752.409" y="676.362" type="curve" smooth="yes"/>
      <point x="752.409" y="661.503"/>
      <point x="765.732" y="652"/>
      <point x="787.667" y="652" type="curve"/>
      <point x="818.667" y="652" type="line"/>
      <point x="818.667" y="522" type="line"/>
      <point x="800.667" y="522" type="line"/>
      <point x="665.492" y="522"/>
      <point x="644" y="607.938"/>
    </contour>
    <contour>
      <point x="594" y="522" type="line"/>
      <point x="594" y="652" type="line"/>
      <point x="819" y="652" type="line"/>
      <point x="819" y="522" type="line"/>
    </contour>
  </outline>
</glyph>
<glyph name="si_KSsU" format="1">
  <advance width="1204"/>
  <outline>
    <contour>
      <point x="1018" y="131" type="line"/>
      <point x="1158" y="131" type="line"/>
      <point x="1158" y="-205" type="line"/>
      <point x="1018" y="-205" type="line"/>
    </contour>
    <contour>
      <point x="892" y="-65" type="line"/>
      <point x="1028" y="-65" type="line"/>
      <point x="1028" y="-205" type="line"/>
      <point x="892" y="-205" type="line"/>
    </contour>
    <contour>
      <point x="600" y="-65" type="line"/>
      <point x="836" y="-65" type="line"/>
      <point x="836" y="-205" type="line"/>
      <point x="600" y="-205" type="line"/>
    </contour>
    <component base="si_KSsa"/>
  </outline>
</glyph>
<glyph name="si_KVIi" format="1">
  <advance width="1138"/>
  <outline>
    <contour>
      <point x="843" y="-5" type="curve"/>
      <point x="843" y="135" type="line"/>
      <point x="885.411" y="135"/>
      <point x="937" y="149"/>
      <point x="937" y="250" type="curve" smooth="yes"/>
      <point x="937" y="454" type="line" smooth="yes"/>
      <point x="937" y="514"/>
      <point x="895.736" y="522"/>
      <point x="846" y="522" type="curve"/>
      <point x="846" y="645" type="line"/>
      <point x="858.176" y="645"/>
      <point x="879.84" y="644.918"/>
      <point x="891" y="644.92" type="curve" smooth="yes"/>
      <point x="1023.62" y="644.946"/>
      <point x="1078" y="596"/>
      <point x="1078" y="474" type="curve" smooth="yes"/>
      <point x="1078" y="250" type="line" smooth="yes"/>
      <point x="1078" y="78"/>
      <point x="997.968" y="-4.83398"/>
    </contour>
    <contour>
      <point x="865" y="711" type="curve" smooth="yes"/>
      <point x="865" y="771"/>
      <point x="913" y="819"/>
      <point x="973" y="819" type="curve" smooth="yes"/>
      <point x="1033" y="819"/>
      <point x="1081" y="771"/>
      <point x="1081" y="711" type="curve" smooth="yes"/>
      <point x="1081" y="651"/>
      <point x="1033" y="603"/>
      <point x="973" y="603" type="curve" smooth="yes"/>
      <point x="913" y="603"/>
      <point x="865" y="651"/>
    </contour>
    <contour>
      <point x="846" y="703" type="line"/>
      <point x="846" y="819" type="line"/>
      <point x="973" y="819" type="line"/>
      <point x="973" y="703" type="line"/>
    </contour>
    <contour>
      <point x="732" y="645" type="curve" smooth="yes"/>
      <point x="789.667" y="645" type="line"/>
      <point x="789.667" y="522" type="line"/>
      <point x="743" y="522" type="line" smooth="yes"/>
      <point x="506.896" y="522"/>
      <point x="506.104" y="819"/>
      <point x="743" y="819" type="curve" smooth="yes"/>
      <point x="790" y="819" type="line"/>
      <point x="790" y="703" type="line"/>
      <point x="732" y="703" type="line" smooth="yes"/>
      <point x="683.085" y="703"/>
      <point x="683.209" y="645"/>
    </contour>
    <contour>
      <point x="30" y="439" type="line"/>
      <point x="44" y="537"/>
      <point x="136.521" y="567"/>
      <point x="198" y="567" type="curve" smooth="yes"/>
      <point x="270.694" y="567"/>
      <point x="320" y="533"/>
      <point x="337" y="502" type="curve"/>
      <point x="245" y="402" type="line"/>
      <point x="245" y="437"/>
      <point x="214.169" y="446"/>
      <point x="198" y="446" type="curve" smooth="yes"/>
      <point x="164.069" y="446"/>
      <point x="147" y="422.741"/>
      <point x="147" y="402" type="curve"/>
    </contour>
    <contour>
      <point x="30" y="160" type="curve"/>
      <point x="147" y="255" type="line"/>
      <point x="165.91" y="239.066"/>
      <point x="180.861" y="220.713"/>
      <point x="180.88" y="202" type="curve"/>
      <point x="181" y="160" type="line" smooth="yes"/>
      <point x="181.107" y="122.479"/>
      <point x="240" y="122.546"/>
      <point x="240" y="160" type="curve" smooth="yes"/>
      <point x="240" y="202" type="line"/>
      <point x="339.88" y="202" type="line"/>
      <point x="340" y="162" type="line" smooth="yes"/>
      <point x="340.122" y="121.477"/>
      <point x="400" y="121.548"/>
      <point x="400" y="162" type="curve" smooth="yes"/>
      <point x="400.004" y="202.128" type="line" smooth="yes"/>
      <point x="400.004" y="233.327"/>
      <point x="393.873" y="258.736"/>
      <point x="351" y="276" type="curve"/>
      <point x="448.224" y="354.096" type="line"/>
      <point x="511.602" y="326.931"/>
      <point x="529" y="279.827"/>
      <point x="529" y="218" type="curve" smooth="yes"/>
      <point x="529" y="136" type="line" smooth="yes"/>
      <point x="529" y="2.60352"/>
      <point x="363.235" y="-52.7676"/>
      <point x="290" y="36" type="curve"/>
      <point x="229.787" y="-51.9111"/>
      <point x="64.9814" y="8.54395"/>
      <point x="65" y="106" type="curve" smooth="yes"/>
      <point x="65.0029" y="121.756" type="line" smooth="yes"/>
      <point x="65.0029" y="141.945"/>
      <point x="64.3154" y="161.906"/>
      <point x="41.2734" y="161.906" type="curve" smooth="yes"/>
      <point x="37.9902" y="161.906"/>
      <point x="34.2529" y="161.3"/>
    </contour>
    <contour>
      <point x="30" y="160" type="line"/>
      <point x="30" y="259" type="line"/>
      <point x="335" y="509" type="line"/>
      <point x="508.717" y="651.303"/>
      <point x="837" y="575"/>
      <point x="854" y="369" type="curve"/>
      <point x="854" y="252" type="line"/>
      <point x="770" y="252" type="line" smooth="yes"/>
      <point x="740" y="252"/>
      <point x="711" y="242"/>
      <point x="711" y="195" type="curve" smooth="yes"/>
      <point x="711" y="165.781"/>
      <point x="733.503" y="135"/>
      <point x="787" y="135" type="curve"/>
      <point x="787" y="-5" type="line"/>
      <point x="659.558" y="-5"/>
      <point x="573" y="87.2324"/>
      <point x="573" y="192" type="curve" smooth="yes"/>
      <point x="573" y="278.105"/>
      <point x="607.443" y="353.071"/>
      <point x="715" y="369" type="curve"/>
      <point x="703" y="452"/>
      <point x="532" y="492"/>
      <point x="425" y="400" type="curve"/>
      <point x="155" y="181.392" type="line"/>
    </contour>
  </outline>
</glyph>
<glyph name="si_KhUu" format="1">
  <advance width="635"/>
  <outline>
    <contour>
      <point x="68" y="-39" type="line"/>
      <point x="94.334" y="-58.333"/>
      <point x="141.444" y="-64.7773"/>
      <point x="162.741" y="-64.7773" type="curve" smooth="yes"/>
      <point x="205.334" y="-64.7773"/>
      <point x="240.667" y="-42"/>
      <point x="280" y="-42" type="curve"/>
      <point x="280" y="-182" type="line"/>
      <point x="240.667" y="-182"/>
      <point x="205.334" y="-204.777"/>
      <point x="162.741" y="-204.777" type="curve" smooth="yes"/>
      <point x="141.444" y="-204.777"/>
      <point x="94.334" y="-198.333"/>
      <point x="68" y="-179" type="curve"/>
    </contour>
    <contour>
      <point x="336" y="-42" type="line"/>
      <point x="353" y="-42"/>
      <point x="433.148" y="-46.167"/>
      <point x="456" y="-61" type="curve"/>
      <point x="456" y="-205" type="line"/>
      <point x="430.106" y="-186.639"/>
      <point x="357" y="-182"/>
      <point x="336" y="-182" type="curve"/>
    </contour>
    <contour>
      <point x="46" y="566" type="curve"/>
      <point x="183" y="530" type="line"/>
      <point x="183" y="595.735"/>
      <point x="222.259" y="616.5"/>
      <point x="262.667" y="616.5" type="curve"/>
      <point x="273" y="616.5" type="line"/>
      <point x="273" y="755" type="line"/>
      <point x="262.667" y="755" type="line"/>
      <point x="156.127" y="755"/>
      <point x="46" y="672.126"/>
    </contour>
    <contour>
      <point x="260" y="154" type="curve" smooth="yes"/>
      <point x="260" y="242" type="line"/>
      <point x="395" y="242" type="line"/>
      <point x="395" y="226" type="line" smooth="yes"/>
      <point x="395" y="184.094"/>
      <point x="465" y="185"/>
      <point x="465" y="226" type="curve" smooth="yes"/>
      <point x="465" y="500" type="line" smooth="yes"/>
      <point x="465" y="579"/>
      <point x="448.252" y="616"/>
      <point x="370" y="616" type="curve"/>
      <point x="329" y="616" type="line"/>
      <point x="329" y="755" type="line"/>
      <point x="370" y="755" type="line"/>
      <point x="504.272" y="755"/>
      <point x="605" y="699"/>
      <point x="605" y="500" type="curve" smooth="yes"/>
      <point x="605" y="229" type="line" smooth="yes"/>
      <point x="605" y="-30"/>
      <point x="260" y="11.1592"/>
    </contour>
    <contour>
      <point x="30" y="189" type="curve" smooth="yes"/>
      <point x="30" y="273" type="line" smooth="yes"/>
      <point x="30" y="511.395"/>
      <point x="395" y="503.046"/>
      <point x="395" y="300" type="curve" smooth="yes"/>
      <point x="395" y="-16" type="line"/>
      <point x="260" y="-16" type="line"/>
      <point x="260" y="261" type="line" smooth="yes"/>
      <point x="260" y="331.478"/>
      <point x="165" y="329.174"/>
      <point x="165" y="261" type="curve" smooth="yes"/>
      <point x="165" y="202" type="line" smooth="yes"/>
      <point x="165" y="166"/>
      <point x="169.264" y="140"/>
      <point x="214" y="140" type="curve"/>
      <point x="214" y="0" type="line"/>
      <point x="62" y="0"/>
      <point x="30" y="92"/>
    </contour>
    <contour>
      <point x="456" y="193" type="line"/>
      <point x="596" y="193" type="line"/>
      <point x="596" y="-205" type="line"/>
      <point x="456" y="-205" type="line"/>
    </contour>
  </outline>
</glyph>
<glyph name="si_NDa" format="1">
  <advance width="1023"/>
  <outline>
    <contour>
      <point x="32" y="439" type="line"/>
      <point x="46" y="537"/>
      <point x="138.521" y="567"/>
      <point x="200" y="567" type="curve" smooth="yes"/>
      <point x="268.511" y="567"/>
      <point x="331" y="522"/>
      <point x="331" y="506" type="curve"/>
      <point x="247" y="402" type="line"/>
      <point x="247" y="437"/>
      <point x="216.169" y="446"/>
      <point x="200" y="446" type="curve" smooth="yes"/>
      <point x="166.069" y="446"/>
      <point x="149" y="422.741"/>
      <point x="149" y="402" type="curve"/>
    </contour>
    <contour>
      <point x="125" y="165" type="line"/>
      <point x="125" y="304" type="line" smooth="yes"/>
      <point x="149.771" y="303.963" type="line" smooth="yes"/>
      <point x="176.32" y="303.963"/>
      <point x="251.206" y="435.953"/>
      <point x="283.456" y="479" type="curve"/>
      <point x="333.498" y="554.371"/>
      <point x="422" y="592"/>
      <point x="542" y="592" type="curve"/>
      <point x="542" y="462.396" type="line"/>
      <point x="460.521" y="462.321"/>
      <point x="411.726" y="435.199"/>
      <point x="373" y="384" type="curve" smooth="yes"/>
      <point x="295.093" y="281" type="line"/>
      <point x="239.657" y="208"/>
      <point x="201.849" y="165"/>
      <point x="154" y="165" type="curve"/>
    </contour>
    <contour>
      <point x="30" y="256" type="curve"/>
      <point x="30" y="344" type="line"/>
      <point x="148" y="344" type="line"/>
      <point x="148" y="313"/>
      <point x="148" y="301"/>
      <point x="148" y="270" type="curve" smooth="yes"/>
      <point x="148" y="150.343"/>
      <point x="208.982" y="127"/>
      <point x="278" y="127" type="curve" smooth="yes"/>
      <point x="358.634" y="127"/>
      <point x="389" y="218"/>
      <point x="336" y="251" type="curve"/>
      <point x="412.215" y="354.312" type="line"/>
      <point x="569" y="271"/>
      <point x="518.12" y="-7.85059"/>
      <point x="282" y="-8" type="curve" smooth="yes"/>
      <point x="134" y="-8.09375"/>
      <point x="30" y="85.0723"/>
    </contour>
    <contour>
      <point x="714" y="0" type="curve"/>
      <point x="714" y="136" type="line"/>
      <point x="746.728" y="136"/>
      <point x="776" y="140"/>
      <point x="789" y="172" type="curve"/>
      <point x="917" y="138" type="line"/>
      <point x="892" y="52"/>
      <point x="806.826" y="0.131836"/>
    </contour>
    <contour>
      <point x="677" y="0" type="line"/>
      <point x="677" y="136" type="line"/>
      <point x="714" y="136" type="line"/>
      <point x="714" y="0" type="line"/>
    </contour>
    <contour>
      <point x="450" y="198" type="curve" smooth="yes"/>
      <point x="450" y="334.29"/>
      <point x="543" y="397"/>
      <point x="676" y="397" type="curve" smooth="yes"/>
      <point x="719" y="397" type="line"/>
      <point x="719" y="459"/>
      <point x="647" y="462"/>
      <point x="597" y="462.396" type="curve"/>
      <point x="597" y="592.392" type="line"/>
      <point x="733" y="592"/>
      <point x="862" y="553"/>
      <point x="862" y="397" type="curve" smooth="yes"/>
      <point x="862" y="263" type="line"/>
      <point x="676" y="263" type="line" smooth="yes"/>
      <point x="637" y="263"/>
      <point x="593" y="257.19"/>
      <point x="593" y="198" type="curve"/>
      <point x="593" y="146"/>
      <point x="640" y="136"/>
      <point x="677" y="136" type="curve" smooth="yes"/>
      <point x="677" y="0" type="line" smooth="yes"/>
      <point x="557" y="0"/>
      <point x="450" y="59.3916"/>
    </contour>
    <contour>
      <point x="603" y="-45" type="line"/>
      <point x="603" y="-136.261"/>
      <point x="669.999" y="-204"/>
      <point x="789" y="-204" type="curve" smooth="yes"/>
      <point x="894.502" y="-204"/>
      <point x="950.119" y="-148.451"/>
      <point x="972" y="-81" type="curve"/>
      <point x="839" y="-47" type="line"/>
      <point x="833.827" y="-67.3711"/>
      <point x="809.689" y="-78"/>
      <point x="789" y="-78" type="curve" smooth="yes"/>
      <point x="760.289" y="-78"/>
      <point x="740" y="-61.1494"/>
      <point x="740" y="-45" type="curve"/>
    </contour>
  </outline>
</glyph>
<glyph name="si_NV.halant" format="1">
  <advance width="1082"/>
  <outline>
    <contour>
      <point x="820.167" y="703" type="line"/>
      <point x="820.167" y="819" type="line"/>
      <point x="865.667" y="819" type="line" smooth="yes"/>
      <point x="1014.03" y="819"/>
      <point x="1039" y="756"/>
      <point x="1039" y="673" type="curve"/>
      <point x="903.667" y="673" type="line"/>
      <point x="903.667" y="700"/>
      <point x="879" y="703"/>
      <point x="833.667" y="703" type="curve" smooth="yes"/>
    </contour>
    <contour>
      <point x="588" y="652" type="curve"/>
      <point x="547" y="652"/>
      <point x="506.81" y="819"/>
      <point x="723" y="819" type="curve" smooth="yes"/>
      <point x="764.667" y="819" type="line"/>
      <point x="764.667" y="703" type="line"/>
      <point x="731.667" y="703" type="line" smooth="yes"/>
      <point x="702.729" y="703"/>
      <point x="696.409" y="688.847"/>
      <point x="696.409" y="676.362" type="curve" smooth="yes"/>
      <point x="696.409" y="661.503"/>
      <point x="709.732" y="652"/>
      <point x="731.667" y="652" type="curve"/>
      <point x="762.667" y="652" type="line"/>
      <point x="762.667" y="522" type="line"/>
      <point x="744.667" y="522" type="line"/>
      <point x="609.492" y="522"/>
      <point x="588" y="607.938"/>
    </contour>
    <contour>
      <point x="538" y="522" type="line"/>
      <point x="538" y="652" type="line"/>
      <point x="763" y="652" type="line"/>
      <point x="763" y="522" type="line"/>
    </contour>
    <contour>
      <point x="817" y="-5" type="curve"/>
      <point x="817" y="135" type="line"/>
      <point x="859.411" y="135"/>
      <point x="911" y="149"/>
      <point x="911" y="250" type="curve" smooth="yes"/>
      <point x="911" y="455" type="line" smooth="yes"/>
      <point x="911" y="514"/>
      <point x="870.403" y="522"/>
      <point x="820.667" y="522" type="curve"/>
      <point x="820.667" y="652" type="line"/>
      <point x="980.305" y="652"/>
      <point x="1052" y="590"/>
      <point x="1052" y="474" type="curve" smooth="yes"/>
      <point x="1052" y="250" type="line" smooth="yes"/>
      <point x="1052" y="78"/>
      <point x="971.968" y="-4.83398"/>
    </contour>
    <contour>
      <point x="32" y="439" type="line"/>
      <point x="46" y="537"/>
      <point x="138.521" y="567"/>
      <point x="200" y="567" type="curve" smooth="yes"/>
      <point x="268.511" y="567"/>
      <point x="331" y="522"/>
      <point x="331" y="506" type="curve"/>
      <point x="247" y="402" type="line"/>
      <point x="247" y="437"/>
      <point x="216.169" y="446"/>
      <point x="200" y="446" type="curve" smooth="yes"/>
      <point x="166.069" y="446"/>
      <point x="149" y="422.741"/>
      <point x="149" y="402" type="curve"/>
    </contour>
    <contour>
      <point x="125" y="165" type="line"/>
      <point x="125" y="304" type="line" smooth="yes"/>
      <point x="149.771" y="303.963" type="line" smooth="yes"/>
      <point x="176.32" y="303.963"/>
      <point x="251.206" y="435.953"/>
      <point x="283.456" y="479" type="curve"/>
      <point x="401.423" y="656.675"/>
      <point x="831" y="614"/>
      <point x="828" y="339" type="curve"/>
      <point x="828" y="252" type="line"/>
      <point x="744" y="252" type="line" smooth="yes"/>
      <point x="714" y="252"/>
      <point x="685" y="242"/>
      <point x="685" y="195" type="curve" smooth="yes"/>
      <point x="685" y="165.781"/>
      <point x="707.503" y="135"/>
      <point x="761" y="135" type="curve"/>
      <point x="761" y="-5" type="line"/>
      <point x="633.558" y="-5"/>
      <point x="547" y="84.2324"/>
      <point x="547" y="189" type="curve" smooth="yes"/>
      <point x="547" y="265.484"/>
      <point x="568.439" y="349"/>
      <point x="686" y="369" type="curve"/>
      <point x="651.699" y="447.451"/>
      <point x="576.575" y="452.589"/>
      <point x="519.43" y="452.589" type="curve" smooth="yes"/>
      <point x="454.63" y="452.589"/>
      <point x="402.375" y="422.837"/>
      <point x="373" y="384" type="curve" smooth="yes"/>
      <point x="295.093" y="281" type="line"/>
      <point x="239.657" y="208"/>
      <point x="201.849" y="165"/>
      <point x="154" y="165" type="curve"/>
    </contour>
    <contour>
      <point x="30" y="256" type="curve"/>
      <point x="30" y="344" type="line"/>
      <point x="148" y="344" type="line"/>
      <point x="148" y="313"/>
      <point x="148" y="301"/>
      <point x="148" y="270" type="curve" smooth="yes"/>
      <point x="148" y="150.343"/>
      <point x="208.982" y="127"/>
      <point x="278" y="127" type="curve" smooth="yes"/>
      <point x="358.634" y="127"/>
      <point x="389" y="218"/>
      <point x="336" y="251" type="curve"/>
      <point x="412.215" y="354.312" type="line"/>
      <point x="569" y="271"/>
      <point x="518.12" y="-7.85059"/>
      <point x="282" y="-8" type="curve" smooth="yes"/>
      <point x="134" y="-8.09375"/>
      <point x="30" y="85.0723"/>
    </contour>
  </outline>
</glyph>
<glyph name="si_Ndj.halant" format="1">
  <advance width="801"/>
  <outline>
    <contour>
      <point x="490.001" y="529" type="line"/>
      <point x="490.001" y="819" type="line"/>
      <point x="621.001" y="819" type="line"/>
      <point x="621.001" y="696" type="line"/>
      <point x="497.685" y="529" type="line"/>
    </contour>
    <component base="si_Ndja"/>
  </outline>
</glyph>
<glyph name="si_PhIi" format="1">
  <advance width="568"/>
  <outline>
    <contour>
      <point x="26.5264" y="776.125" type="curve" smooth="yes"/>
      <point x="26.5264" y="709.419"/>
      <point x="70.4756" y="645"/>
      <point x="154.744" y="645" type="curve" smooth="yes"/>
      <point x="183" y="645" type="line"/>
      <point x="183" y="755" type="line"/>
      <point x="162.626" y="755"/>
      <point x="152.348" y="767.825"/>
      <point x="152.348" y="780.613" type="curve" smooth="yes"/>
      <point x="152.348" y="793.325"/>
      <point x="162.505" y="806"/>
      <point x="183" y="806" type="curve" smooth="yes"/>
      <point x="322.286" y="806" type="line"/>
      <point x="322.331" y="749.79"/>
      <point x="372.692" y="706"/>
      <point x="430" y="706" type="curve" smooth="yes"/>
      <point x="490" y="706"/>
      <point x="538" y="754"/>
      <point x="538" y="814" type="curve" smooth="yes"/>
      <point x="538" y="874"/>
      <point x="490" y="922"/>
      <point x="430" y="922" type="curve" smooth="yes"/>
      <point x="183" y="922" type="line" smooth="yes"/>
      <point x="77.1865" y="922"/>
      <point x="26.5264" y="847.744"/>
    </contour>
    <component base="si_Pha"/>
  </outline>
</glyph>
<glyph name="si_RAe" format="1">
  <advance width="829"/>
  <outline>
    <contour>
      <point x="510" y="596" type="line"/>
      <point x="510" y="734" type="line"/>
      <point x="815" y="734" type="line"/>
      <point x="815" y="602" type="line"/>
      <point x="730" y="478.241"/>
      <point x="719.028" y="474.552"/>
      <point x="719.177" y="408" type="curve" smooth="yes"/>
      <point x="719" y="202" type="line" smooth="yes"/>
      <point x="719" y="153.207"/>
      <point x="749.804" y="143"/>
      <point x="774" y="143" type="curve" smooth="yes"/>
      <point x="815" y="143" type="line"/>
      <point x="815" y="0" type="line"/>
      <point x="773.19" y="-0.00292969" type="line" smooth="yes"/>
      <point x="666.365" y="-0.00292969"/>
      <point x="577.854" y="57.9854"/>
      <point x="578" y="208" type="curve" smooth="yes"/>
      <point x="578" y="420" type="line" smooth="yes"/>
      <point x="578" y="488.58"/>
      <point x="587.073" y="503.178"/>
      <point x="651" y="596" type="curve"/>
    </contour>
    <component base="si_Ra" xOffset="-3"/>
  </outline>
</glyph>
<glyph name="si_R.halant" format="1">
  <advance width="545"/>
  <outline>
    <contour>
      <point x="30.001" y="389" type="line"/>
      <point x="30.001" y="819" type="line"/>
      <point x="166.001" y="819" type="line"/>
      <point x="166.001" y="389" type="line"/>
    </contour>
    <component base="si_Ra"/>
  </outline>
</glyph>
<glyph name="si_Reph" format="1">
  <advance width="404"/>
  <outline>
    <contour>
      <point x="30.2324" y="701.31" type="curve" smooth="yes"/>
      <point x="30.2324" y="759.794"/>
      <point x="68.9844" y="819"/>
      <point x="141" y="819" type="curve" smooth="yes"/>
      <point x="252" y="819" type="line" smooth="yes"/>
      <point x="332.645" y="819"/>
      <point x="374" y="771.21"/>
      <point x="374" y="699.75" type="curve" smooth="yes"/>
      <point x="374.047" y="617.75" type="line"/>
      <point x="276.047" y="617.853" type="line"/>
      <point x="276.047" y="678.853" type="line"/>
      <point x="276.047" y="717.937"/>
      <point x="255.439" y="720.103"/>
      <point x="219.297" y="720.853" type="curve"/>
      <point x="144.047" y="720.853" type="line" smooth="yes"/>
      <point x="131.047" y="720.853"/>
      <point x="120.047" y="709.853"/>
      <point x="120.047" y="696.853" type="curve" smooth="yes"/>
      <point x="120.047" y="683.853"/>
      <point x="131.047" y="672.853"/>
      <point x="144.047" y="672.853" type="curve" smooth="yes"/>
      <point x="157.047" y="672.853"/>
      <point x="168.047" y="683.853"/>
      <point x="168.047" y="696.853" type="curve"/>
      <point x="249.047" y="696.853" type="line"/>
      <point x="249.047" y="646.985"/>
      <point x="231.01" y="587.853"/>
      <point x="146.047" y="587.853" type="curve" smooth="yes"/>
      <point x="67.1377" y="587.853"/>
      <point x="30.2324" y="644.237"/>
    </contour>
  </outline>
</glyph>
<glyph name="si_TThI" format="1">
  <advance width="1078"/>
  <outline>
    <contour>
      <point x="665.744" y="645" type="line" smooth="yes"/>
      <point x="491" y="645"/>
      <point x="489.632" y="922"/>
      <point x="694" y="922" type="curve" smooth="yes"/>
      <point x="880" y="922" type="line" smooth="yes"/>
      <point x="986" y="922"/>
      <point x="1029.33" y="853.602"/>
      <point x="1029.33" y="776" type="curve"/>
      <point x="894" y="776" type="line"/>
      <point x="894" y="804.182"/>
      <point x="873.614" y="805.917"/>
      <point x="835.849" y="806" type="curve" smooth="yes"/>
      <point x="694" y="806" type="line" smooth="yes"/>
      <point x="652.889" y="806"/>
      <point x="653.373" y="755"/>
      <point x="694" y="755" type="curve"/>
      <point x="694" y="645" type="line"/>
    </contour>
    <component base="si_TTha"/>
  </outline>
</glyph>
<glyph name="si_TThIi" format="1">
  <advance width="1080"/>
  <outline>
    <contour>
      <point x="538.526" y="776.125" type="curve" smooth="yes"/>
      <point x="538.526" y="709.419"/>
      <point x="582.476" y="645"/>
      <point x="666.744" y="645" type="curve" smooth="yes"/>
      <point x="695" y="645" type="line"/>
      <point x="695" y="755" type="line"/>
      <point x="674.626" y="755"/>
      <point x="664.348" y="767.825"/>
      <point x="664.348" y="780.613" type="curve" smooth="yes"/>
      <point x="664.348" y="793.325"/>
      <point x="674.505" y="806"/>
      <point x="695" y="806" type="curve" smooth="yes"/>
      <point x="834.286" y="806" type="line"/>
      <point x="834.331" y="749.79"/>
      <point x="884.692" y="706"/>
      <point x="942" y="706" type="curve" smooth="yes"/>
      <point x="1002" y="706"/>
      <point x="1050" y="754"/>
      <point x="1050" y="814" type="curve" smooth="yes"/>
      <point x="1050" y="874"/>
      <point x="1002" y="922"/>
      <point x="942" y="922" type="curve" smooth="yes"/>
      <point x="695" y="922" type="line" smooth="yes"/>
      <point x="589.187" y="922"/>
      <point x="538.526" y="847.744"/>
    </contour>
    <component base="si_TTha"/>
  </outline>
</glyph>
<glyph name="si_TU" format="1">
  <advance width="771"/>
  <outline>
    <contour>
      <point x="523" y="19" type="line" smooth="yes"/>
      <point x="522.854" y="147.379"/>
      <point x="611.365" y="197.003"/>
      <point x="718.19" y="197.003" type="curve" smooth="yes"/>
      <point x="725.229" y="197.003"/>
      <point x="732.533" y="197.002"/>
      <point x="740" y="197" type="curve"/>
      <point x="740" y="54" type="line"/>
      <point x="735.681" y="54"/>
      <point x="727.854" y="54"/>
      <point x="719" y="54" type="curve" smooth="yes"/>
      <point x="694.804" y="54"/>
      <point x="664" y="43.793"/>
      <point x="664" y="-5" type="curve" smooth="yes"/>
      <point x="664.177" y="-23" type="line" smooth="yes"/>
      <point x="523" y="-23" type="line" smooth="yes"/>
    </contour>
    <contour>
      <point x="523" y="15" type="line" smooth="yes"/>
      <point x="664.177" y="15" type="line" smooth="yes"/>
      <point x="664" y="-5" type="line" smooth="yes"/>
      <point x="664" y="-53.793"/>
      <point x="694.804" y="-64"/>
      <point x="719" y="-64" type="curve" smooth="yes"/>
      <point x="727.854" y="-64"/>
      <point x="735.681" y="-64"/>
      <point x="740" y="-64" type="curve"/>
      <point x="740" y="-205" type="line"/>
      <point x="732.533" y="-205.002"/>
      <point x="725.229" y="-205.003"/>
      <point x="718.19" y="-205.003" type="curve" smooth="yes"/>
      <point x="611.365" y="-205.003"/>
      <point x="522.854" y="-155.937"/>
      <point x="523" y="-29" type="curve" smooth="yes"/>
    </contour>
    <contour>
      <point x="30.2344" y="153.779" type="curve"/>
      <point x="74.2344" y="248.779" type="line"/>
      <point x="203.459" y="286.312"/>
      <point x="189.541" y="127.22"/>
      <point x="292.271" y="127.22" type="curve" smooth="yes"/>
      <point x="335.114" y="127.22"/>
      <point x="372.774" y="154.372"/>
      <point x="372.774" y="194.3" type="curve" smooth="yes"/>
      <point x="372.774" y="219.891"/>
      <point x="362.271" y="244.211"/>
      <point x="324" y="260" type="curve"/>
      <point x="421.224" y="338.096" type="line"/>
      <point x="493" y="306.299"/>
      <point x="504.46" y="235.933"/>
      <point x="504.46" y="185.055" type="curve" smooth="yes"/>
      <point x="504.46" y="82.5752"/>
      <point x="427.353" y="-8"/>
      <point x="296" y="-8" type="curve" smooth="yes"/>
      <point x="234.065" y="-8"/>
      <point x="163.426" y="24.999"/>
      <point x="111.234" y="100.732" type="curve" smooth="yes"/>
      <point x="90.2344" y="131.205"/>
      <point x="75.2344" y="165.558"/>
    </contour>
    <contour>
      <point x="37.2344" y="438.779" type="line"/>
      <point x="51.2344" y="536.779"/>
      <point x="143.756" y="566.779"/>
      <point x="205.234" y="566.779" type="curve" smooth="yes"/>
      <point x="273.745" y="566.779"/>
      <point x="336.234" y="521.779"/>
      <point x="336.234" y="505.779" type="curve"/>
      <point x="252.234" y="401.779" type="line"/>
      <point x="252.234" y="436.779"/>
      <point x="221.403" y="445.779"/>
      <point x="205.234" y="445.779" type="curve" smooth="yes"/>
      <point x="171.304" y="445.779"/>
      <point x="154.234" y="422.521"/>
      <point x="154.234" y="401.779" type="curve"/>
    </contour>
    <contour>
      <point x="30.2344" y="153.779" type="line"/>
      <point x="30.2344" y="258.779" type="line"/>
      <point x="301.234" y="479.779" type="line"/>
      <point x="446.055" y="639.082"/>
      <point x="740.234" y="581.669"/>
      <point x="740.234" y="320.779" type="curve" smooth="yes"/>
      <point x="740.234" y="134.779" type="line" smooth="yes"/>
      <point x="600.234" y="134.779" type="line" smooth="yes"/>
      <point x="600.234" y="306.779" type="line" smooth="yes"/>
      <point x="600.234" y="415.824"/>
      <point x="496.941" y="454.779"/>
      <point x="425.234" y="399.779" type="curve"/>
      <point x="155.234" y="188.171" type="line"/>
    </contour>
  </outline>
</glyph>
<glyph name="si_TVIi" format="1">
  <advance width="1078"/>
  <outline>
    <contour>
      <point x="839" y="711" type="curve" smooth="yes"/>
      <point x="839" y="651"/>
      <point x="887" y="603"/>
      <point x="947" y="603" type="curve" smooth="yes"/>
      <point x="1007" y="603"/>
      <point x="1055" y="651"/>
      <point x="1055" y="711" type="curve" smooth="yes"/>
      <point x="1055" y="771"/>
      <point x="1007" y="819"/>
      <point x="947" y="819" type="curve" smooth="yes"/>
      <point x="887" y="819"/>
      <point x="839" y="771"/>
    </contour>
    <contour>
      <point x="817" y="703" type="line"/>
      <point x="947" y="703" type="line"/>
      <point x="947" y="819" type="line"/>
      <point x="817" y="819" type="line"/>
    </contour>
    <contour>
      <point x="703" y="645" type="curve" smooth="yes"/>
      <point x="760.667" y="645" type="line"/>
      <point x="760.667" y="522" type="line"/>
      <point x="714" y="522" type="line" smooth="yes"/>
      <point x="477.896" y="522"/>
      <point x="477.104" y="819"/>
      <point x="714" y="819" type="curve" smooth="yes"/>
      <point x="761" y="819" type="line"/>
      <point x="761" y="703" type="line"/>
      <point x="703" y="703" type="line" smooth="yes"/>
      <point x="654.085" y="703"/>
      <point x="654.209" y="645"/>
    </contour>
    <contour>
      <point x="817" y="-5" type="line"/>
      <point x="971.968" y="-4.83398"/>
      <point x="1052" y="78"/>
      <point x="1052" y="250" type="curve" smooth="yes"/>
      <point x="1052" y="475" type="line" smooth="yes"/>
      <point x="1052" y="595"/>
      <point x="1000.62" y="644.943"/>
      <point x="865" y="644.92" type="curve" smooth="yes"/>
      <point x="853.84" y="644.918"/>
      <point x="829.176" y="645"/>
      <point x="817" y="645" type="curve"/>
      <point x="817" y="522" type="line"/>
      <point x="869.736" y="522"/>
      <point x="912" y="514"/>
      <point x="912" y="456" type="curve" smooth="yes"/>
      <point x="912" y="250" type="line" smooth="yes"/>
      <point x="912" y="149"/>
      <point x="859.411" y="135"/>
      <point x="817" y="135" type="curve"/>
    </contour>
    <contour>
      <point x="30.2344" y="153.779" type="curve"/>
      <point x="74.2344" y="248.779" type="line"/>
      <point x="203.459" y="286.312"/>
      <point x="189.541" y="127.22"/>
      <point x="292.271" y="127.22" type="curve" smooth="yes"/>
      <point x="335.114" y="127.22"/>
      <point x="372.774" y="154.372"/>
      <point x="372.774" y="194.3" type="curve" smooth="yes"/>
      <point x="372.774" y="219.891"/>
      <point x="362.271" y="244.211"/>
      <point x="324" y="260" type="curve"/>
      <point x="421.224" y="338.096" type="line"/>
      <point x="493" y="306.299"/>
      <point x="504.46" y="235.933"/>
      <point x="504.46" y="185.055" type="curve" smooth="yes"/>
      <point x="504.46" y="82.5752"/>
      <point x="427.353" y="-8"/>
      <point x="296" y="-8" type="curve" smooth="yes"/>
      <point x="234.065" y="-8"/>
      <point x="163.426" y="24.999"/>
      <point x="111.234" y="100.732" type="curve" smooth="yes"/>
      <point x="90.2344" y="131.205"/>
      <point x="75.2344" y="165.558"/>
    </contour>
    <contour>
      <point x="37.2344" y="438.779" type="line"/>
      <point x="51.2344" y="536.779"/>
      <point x="143.756" y="566.779"/>
      <point x="205.234" y="566.779" type="curve" smooth="yes"/>
      <point x="273.745" y="566.779"/>
      <point x="336.234" y="521.779"/>
      <point x="336.234" y="505.779" type="curve"/>
      <point x="252.234" y="401.779" type="line"/>
      <point x="252.234" y="436.779"/>
      <point x="221.403" y="445.779"/>
      <point x="205.234" y="445.779" type="curve" smooth="yes"/>
      <point x="171.304" y="445.779"/>
      <point x="154.234" y="422.521"/>
      <point x="154.234" y="401.779" type="curve"/>
    </contour>
    <contour>
      <point x="30.2344" y="153.779" type="line"/>
      <point x="30.2344" y="258.779" type="line"/>
      <point x="324" y="498" type="line"/>
      <point x="506" y="641"/>
      <point x="828" y="576.89"/>
      <point x="828" y="339" type="curve"/>
      <point x="828" y="252" type="line"/>
      <point x="744" y="252" type="line" smooth="yes"/>
      <point x="714" y="252"/>
      <point x="685" y="242"/>
      <point x="685" y="195" type="curve" smooth="yes"/>
      <point x="685" y="165.781"/>
      <point x="707.503" y="135"/>
      <point x="761" y="135" type="curve"/>
      <point x="761" y="-5" type="line"/>
      <point x="633.558" y="-5"/>
      <point x="547" y="84.2324"/>
      <point x="547" y="189" type="curve" smooth="yes"/>
      <point x="547" y="265.484"/>
      <point x="568.439" y="349"/>
      <point x="686" y="369" type="curve"/>
      <point x="631" y="479"/>
      <point x="483" y="446"/>
      <point x="391" y="373" type="curve"/>
      <point x="155.234" y="188.171" type="line"/>
    </contour>
  </outline>
</glyph>
<glyph name="si_TthIi" format="1">
  <advance width="593"/>
  <outline>
    <contour>
      <point x="51.5264" y="776.125" type="curve" smooth="yes"/>
      <point x="51.5264" y="847.744"/>
      <point x="102.187" y="922"/>
      <point x="208" y="922" type="curve" smooth="yes"/>
      <point x="455" y="922" type="line" smooth="yes"/>
      <point x="515" y="922"/>
      <point x="563" y="874"/>
      <point x="563" y="814" type="curve" smooth="yes"/>
      <point x="563" y="754"/>
      <point x="515" y="706"/>
      <point x="455" y="706" type="curve" smooth="yes"/>
      <point x="397.692" y="706"/>
      <point x="347.331" y="749.79"/>
      <point x="347.286" y="806" type="curve"/>
      <point x="208" y="806" type="line" smooth="yes"/>
      <point x="187.505" y="806"/>
      <point x="177.348" y="793.325"/>
      <point x="177.348" y="780.613" type="curve" smooth="yes"/>
      <point x="177.348" y="767.825"/>
      <point x="187.626" y="755"/>
      <point x="208" y="755" type="curve"/>
      <point x="208" y="645" type="line"/>
      <point x="179.744" y="645" type="line" smooth="yes"/>
      <point x="95.4756" y="645"/>
      <point x="51.5264" y="709.419"/>
    </contour>
    <component base="si_Ttha"/>
  </outline>
</glyph>
<glyph name="si_TthUu" format="1">
  <advance width="593"/>
  <outline>
    <contour>
      <point x="54" y="-39" type="line"/>
      <point x="80.334" y="-58.333"/>
      <point x="123.444" y="-64.7773"/>
      <point x="144.741" y="-64.7773" type="curve" smooth="yes"/>
      <point x="187.334" y="-64.7773"/>
      <point x="232.667" y="-42"/>
      <point x="272" y="-42" type="curve"/>
      <point x="272" y="-182" type="line"/>
      <point x="232.667" y="-182"/>
      <point x="187.334" y="-204.777"/>
      <point x="144.741" y="-204.777" type="curve" smooth="yes"/>
      <point x="123.444" y="-204.777"/>
      <point x="80.334" y="-198.333"/>
      <point x="54" y="-179" type="curve"/>
    </contour>
    <contour>
      <point x="408" y="123" type="line"/>
      <point x="548" y="123" type="line"/>
      <point x="548" y="-205" type="line"/>
      <point x="408" y="-205" type="line"/>
    </contour>
    <contour>
      <point x="328" y="-42" type="line"/>
      <point x="345" y="-42"/>
      <point x="385.148" y="-46.167"/>
      <point x="408" y="-61" type="curve"/>
      <point x="408" y="-205" type="line"/>
      <point x="382.106" y="-186.639"/>
      <point x="349" y="-182"/>
      <point x="328" y="-182" type="curve"/>
    </contour>
    <component base="si_Ttha"/>
  </outline>
</glyph>
<glyph name="si_V.halant" format="1">
  <advance width="565"/>
  <outline>
    <contour>
      <point x="53.333" y="522" type="line"/>
      <point x="53.333" y="652" type="line"/>
      <point x="245.333" y="652" type="line"/>
      <point x="245.333" y="522" type="line"/>
    </contour>
    <contour>
      <point x="303" y="522" type="curve"/>
      <point x="303" y="652" type="line"/>
      <point x="462.638" y="652"/>
      <point x="534.333" y="589.89"/>
      <point x="534.333" y="474" type="curve" smooth="yes"/>
      <point x="534.333" y="238" type="line" smooth="yes"/>
      <point x="534.333" y="138.591"/>
      <point x="499.333" y="-5"/>
      <point x="303.333" y="-5" type="curve"/>
      <point x="303.333" y="135" type="line"/>
      <point x="384.333" y="135"/>
      <point x="394.333" y="183.181"/>
      <point x="394.333" y="255" type="curve" smooth="yes"/>
      <point x="394.333" y="455" type="line" smooth="yes"/>
      <point x="394.333" y="513.936"/>
      <point x="352.736" y="522"/>
    </contour>
    <contour>
      <point x="302.5" y="703" type="line"/>
      <point x="302.5" y="819" type="line"/>
      <point x="358" y="819" type="line" smooth="yes"/>
      <point x="476.359" y="819"/>
      <point x="521.333" y="756"/>
      <point x="521.333" y="673" type="curve"/>
      <point x="386" y="673" type="line"/>
      <point x="386" y="700"/>
      <point x="371.333" y="703"/>
      <point x="326" y="703" type="curve" smooth="yes"/>
    </contour>
    <contour>
      <point x="30" y="401" type="line"/>
      <point x="55" y="479.754"/>
      <point x="115.743" y="501.648"/>
      <point x="170" y="501.648" type="curve" smooth="yes"/>
      <point x="251.635" y="501.648"/>
      <point x="314" y="449.685"/>
      <point x="314" y="369" type="curve" smooth="yes"/>
      <point x="314" y="252" type="line"/>
      <point x="230" y="252" type="line" smooth="yes"/>
      <point x="200" y="252"/>
      <point x="171" y="242"/>
      <point x="171" y="195" type="curve" smooth="yes"/>
      <point x="171" y="165.781"/>
      <point x="193.503" y="135"/>
      <point x="247" y="135" type="curve"/>
      <point x="247" y="-5" type="line"/>
      <point x="119.558" y="-5"/>
      <point x="33" y="87.2324"/>
      <point x="33" y="192" type="curve" smooth="yes"/>
      <point x="33" y="241"/>
      <point x="34.1773" y="291.093"/>
      <point x="91" y="333" type="curve" smooth="yes"/>
      <point x="123.542" y="357"/>
      <point x="159.136" y="369"/>
      <point x="211" y="369" type="curve"/>
      <point x="211" y="387.974"/>
      <point x="193.963" y="399.185"/>
      <point x="170" y="399.185" type="curve" smooth="yes"/>
      <point x="152.769" y="399.185"/>
      <point x="133.131" y="393.124"/>
      <point x="129" y="375" type="curve"/>
    </contour>
    <contour>
      <point x="59.0303" y="707.438" type="curve" smooth="yes"/>
      <point x="59.0303" y="772.909"/>
      <point x="129" y="819"/>
      <point x="212" y="819" type="curve" smooth="yes"/>
      <point x="247" y="819" type="line"/>
      <point x="247" y="703" type="line"/>
      <point x="218" y="703" type="line" smooth="yes"/>
      <point x="172.532" y="703"/>
      <point x="173.917" y="652"/>
      <point x="218" y="652" type="curve" smooth="yes"/>
      <point x="303" y="652" type="line"/>
      <point x="303" y="522" type="line"/>
      <point x="237" y="522" type="line" smooth="yes"/>
      <point x="101.825" y="522"/>
      <point x="89.8486" y="602.591"/>
      <point x="89.8486" y="646.652" type="curve"/>
      <point x="75.2354" y="647.028"/>
      <point x="59.0303" y="677.386"/>
    </contour>
  </outline>
</glyph>
<glyph name="si_Ya.post" format="1">
  <advance width="518"/>
  <outline>
    <contour>
      <point x="138" y="366" type="curve" smooth="yes"/>
      <point x="268" y="402" type="line"/>
      <point x="268" y="433.227"/>
      <point x="288.18" y="445.799"/>
      <point x="312" y="445.799" type="curve" smooth="yes"/>
      <point x="330.367" y="445.799"/>
      <point x="348.118" y="441.996"/>
      <point x="360" y="421" type="curve"/>
      <point x="470" y="458" type="line"/>
      <point x="434" y="543"/>
      <point x="367.748" y="566"/>
      <point x="312" y="566" type="curve" smooth="yes"/>
      <point x="185.894" y="566"/>
      <point x="138" y="489.777"/>
    </contour>
    <contour>
      <point x="230" y="0" type="line"/>
      <point x="356" y="0.0849609" type="line" smooth="yes"/>
      <point x="356.05" y="0.0849609"/>
      <point x="356.1" y="0.0849609"/>
      <point x="356.149" y="0.0849609" type="curve" smooth="yes"/>
      <point x="445.048" y="0.0849609"/>
      <point x="488.262" y="75.7832"/>
      <point x="488" y="160" type="curve" smooth="yes"/>
      <point x="487.752" y="239.96" type="line" smooth="yes"/>
      <point x="487.752" y="397.048"/>
      <point x="399.63" y="403"/>
      <point x="318" y="403" type="curve" smooth="yes"/>
      <point x="308.026" y="403"/>
      <point x="243.176" y="403"/>
      <point x="233" y="403" type="curve"/>
      <point x="233" y="266" type="line"/>
      <point x="245.521" y="266"/>
      <point x="307.586" y="266"/>
      <point x="318" y="266" type="curve" smooth="yes"/>
      <point x="331.678" y="266"/>
      <point x="348" y="263.28"/>
      <point x="348" y="228" type="curve" smooth="yes"/>
      <point x="348" y="180" type="line" smooth="yes"/>
      <point x="348" y="138.99"/>
      <point x="320.746" y="134.699"/>
      <point x="288.372" y="134.699" type="curve" smooth="yes"/>
      <point x="279.803" y="134.699"/>
      <point x="270.876" y="135"/>
      <point x="262" y="135" type="curve"/>
    </contour>
    <contour>
      <point x="30" y="0" type="line"/>
      <point x="171" y="0" type="line"/>
      <point x="246" y="313" type="line"/>
      <point x="283" y="472"/>
      <point x="182" y="564"/>
      <point x="40" y="564" type="curve"/>
      <point x="40" y="434" type="line"/>
      <point x="143.17" y="433.542"/>
      <point x="122" y="377"/>
      <point x="108" y="313" type="curve"/>
    </contour>
  </outline>
</glyph>
<glyph name="tml_KUu" format="1">
  <advance width="1152"/>
  <outline>
    <contour>
      <point x="557" y="21" type="line"/>
      <point x="557" y="142" type="line"/>
      <point x="1113" y="142" type="line"/>
      <point x="1113" y="21" type="line"/>
    </contour>
    <contour>
      <point x="557" y="20" type="curve"/>
      <point x="557" y="142" type="line"/>
      <point x="577" y="142" type="line" smooth="yes"/>
      <point x="623" y="142"/>
      <point x="626" y="150"/>
      <point x="626" y="188" type="curve" smooth="yes"/>
      <point x="626" y="230" type="line" smooth="yes"/>
      <point x="626" y="251"/>
      <point x="630" y="250"/>
      <point x="595" y="251" type="curve" smooth="yes"/>
      <point x="595" y="373" type="line"/>
      <point x="665" y="373"/>
      <point x="749" y="342"/>
      <point x="749" y="249" type="curve" smooth="yes"/>
      <point x="749" y="131" type="line" smooth="yes"/>
      <point x="749" y="63"/>
      <point x="672" y="20"/>
      <point x="594" y="20" type="curve" smooth="yes"/>
      <point x="580" y="20"/>
      <point x="639" y="20"/>
    </contour>
    <contour>
      <point x="39" y="157" type="curve" smooth="yes"/>
      <point x="39" y="218" type="line" smooth="yes"/>
      <point x="39" y="326"/>
      <point x="149" y="371"/>
      <point x="235" y="371" type="curve" smooth="yes"/>
      <point x="537" y="371" type="line"/>
      <point x="537" y="249" type="line"/>
      <point x="238" y="249" type="line" smooth="yes"/>
      <point x="174" y="249"/>
      <point x="160" y="239"/>
      <point x="160" y="188" type="curve" smooth="yes"/>
      <point x="160" y="127"/>
      <point x="180" y="122"/>
      <point x="269" y="122" type="curve"/>
      <point x="269" y="-1" type="line"/>
      <point x="111" y="-1"/>
      <point x="39" y="68"/>
    </contour>
    <contour>
      <point x="322" y="-1" type="curve"/>
      <point x="322" y="122" type="line"/>
      <point x="388" y="122"/>
      <point x="419" y="141"/>
      <point x="419" y="187" type="curve" smooth="yes"/>
      <point x="419" y="591" type="line"/>
      <point x="541" y="591" type="line"/>
      <point x="541" y="191" type="line" smooth="yes"/>
      <point x="541" y="95"/>
      <point x="489" y="-1"/>
    </contour>
    <contour>
      <point x="164" y="348" type="line"/>
      <point x="164" y="589" type="line"/>
      <point x="287" y="589" type="line"/>
      <point x="286" y="348" type="line"/>
    </contour>
    <contour>
      <point x="381" y="473" type="line"/>
      <point x="381" y="595" type="line"/>
      <point x="693" y="595" type="line"/>
      <point x="693" y="473" type="line"/>
    </contour>
    <contour>
      <point x="164" y="473" type="line"/>
      <point x="164" y="595" type="line"/>
      <point x="327" y="595" type="line"/>
      <point x="327" y="473" type="line"/>
    </contour>
  </outline>
</glyph>
<glyph name="tml_RU" format="1">
  <advance width="956"/>
  <outline>
    <contour>
      <point x="542" y="473" type="line"/>
      <point x="812" y="473" type="line"/>
      <point x="812" y="595" type="line"/>
      <point x="542" y="595" type="line"/>
    </contour>
    <contour>
      <point x="542" y="-56" type="line"/>
      <point x="542" y="-178" type="line"/>
      <point x="730" y="-179" type="line" smooth="yes"/>
      <point x="856" y="-179"/>
      <point x="917" y="-83"/>
      <point x="917" y="-16" type="curve" smooth="yes"/>
      <point x="917" y="221" type="line" smooth="yes"/>
      <point x="917" y="339"/>
      <point x="815" y="366"/>
      <point x="754" y="372" type="curve"/>
      <point x="754" y="251" type="line"/>
      <point x="775" y="251"/>
      <point x="795" y="237"/>
      <point x="795" y="187" type="curve" smooth="yes"/>
      <point x="795" y="37" type="line" smooth="yes"/>
      <point x="795" y="-6"/>
      <point x="798" y="-56"/>
      <point x="729" y="-56" type="curve" smooth="yes"/>
    </contour>
    <contour>
      <point x="39" y="29" type="line" smooth="yes"/>
      <point x="39" y="-110"/>
      <point x="124" y="-177"/>
      <point x="233" y="-177" type="curve" smooth="yes"/>
      <point x="487" y="-178" type="line"/>
      <point x="487" y="-56" type="line"/>
      <point x="249" y="-56" type="line" smooth="yes"/>
      <point x="185" y="-56"/>
      <point x="162" y="-36"/>
      <point x="162" y="28" type="curve" smooth="yes"/>
      <point x="162" y="287" type="line" smooth="yes"/>
      <point x="162" y="323"/>
      <point x="165" y="379"/>
      <point x="239" y="379" type="curve" smooth="yes"/>
      <point x="238" y="501" type="line" smooth="yes"/>
      <point x="153" y="501"/>
      <point x="39" y="455"/>
      <point x="39" y="292" type="curve" smooth="yes"/>
    </contour>
    <contour>
      <point x="575" y="1" type="line"/>
      <point x="698" y="1" type="line"/>
      <point x="700" y="591" type="line"/>
      <point x="575" y="591" type="line"/>
    </contour>
    <contour>
      <point x="294" y="1" type="line"/>
      <point x="294" y="595" type="line"/>
      <point x="416" y="595" type="line"/>
      <point x="416" y="1" type="line"/>
    </contour>
    <contour>
      <point x="296" y="473" type="line"/>
      <point x="296" y="595" type="line"/>
      <point x="488" y="595" type="line"/>
      <point x="488" y="473" type="line"/>
    </contour>
  </outline>
</glyph>
<glyph name="tml_TtIi" format="1">
  <advance width="0"/>
  <outline>
    <contour>
      <point x="334" y="99" type="line"/>
      <point x="146" y="253"/>
      <point x="193" y="606"/>
      <point x="428" y="606" type="curve" smooth="yes"/>
      <point x="503" y="605"/>
      <point x="606" y="573"/>
      <point x="606" y="444" type="curve" smooth="yes"/>
      <point x="606" y="350"/>
      <point x="528" y="289"/>
      <point x="462" y="289" type="curve" smooth="yes"/>
      <point x="399" y="289"/>
      <point x="349" y="340"/>
      <point x="345" y="361" type="curve"/>
      <point x="416" y="444" type="line" smooth="yes"/>
      <point x="416" y="428"/>
      <point x="425" y="411"/>
      <point x="450" y="411" type="curve" smooth="yes"/>
      <point x="473" y="411"/>
      <point x="484" y="429"/>
      <point x="484" y="443" type="curve" smooth="yes"/>
      <point x="484" y="481"/>
      <point x="451" y="484"/>
      <point x="428" y="484" type="curve"/>
      <point x="295" y="473"/>
      <point x="320" y="235"/>
      <point x="487" y="111" type="curve"/>
    </contour>
    <contour>
      <point x="27" y="0" type="line"/>
      <point x="27" y="122" type="line"/>
      <point x="729" y="122" type="line"/>
      <point x="729" y="0" type="line"/>
    </contour>
    <contour>
      <point x="27" y="176" type="line"/>
      <point x="27" y="596" type="line"/>
      <point x="149" y="596" type="line"/>
      <point x="149" y="176" type="line"/>
    </contour>
  </outline>
</glyph>
<glyph name="tml_TtU" format="1">
  <advance width="825"/>
  <outline>
    <contour>
      <point x="664" y="-257" type="line"/>
      <point x="664" y="595" type="line"/>
      <point x="786" y="595" type="line"/>
      <point x="786" y="-257" type="line"/>
    </contour>
    <contour>
      <point x="318" y="0" type="line"/>
      <point x="318" y="122" type="line"/>
      <point x="666" y="122" type="line"/>
      <point x="666" y="0" type="line"/>
    </contour>
    <contour>
      <point x="275" y="0" type="line"/>
      <point x="275" y="122" type="line"/>
      <point x="434" y="122" type="line" smooth="yes"/>
      <point x="492" y="122"/>
      <point x="488" y="126"/>
      <point x="488" y="145" type="curve" smooth="yes"/>
      <point x="488" y="211" type="line" smooth="yes"/>
      <point x="488" y="232"/>
      <point x="492" y="230"/>
      <point x="457" y="231" type="curve" smooth="yes"/>
      <point x="457" y="354" type="line"/>
      <point x="527" y="354"/>
      <point x="611" y="322"/>
      <point x="611" y="229" type="curve" smooth="yes"/>
      <point x="611" y="111" type="line" smooth="yes"/>
      <point x="611" y="43"/>
      <point x="550" y="0"/>
      <point x="456" y="0" type="curve" smooth="yes"/>
    </contour>
    <contour>
      <point x="281" y="176" type="line"/>
      <point x="403" y="176" type="line"/>
      <point x="403" y="589" type="line"/>
      <point x="281" y="589" type="line"/>
    </contour>
    <contour>
      <point x="39" y="0" type="line"/>
      <point x="161" y="0" type="line"/>
      <point x="161" y="591" type="line"/>
      <point x="39" y="591" type="line"/>
    </contour>
    <contour>
      <point x="39" y="595" type="line"/>
      <point x="40" y="473" type="line"/>
      <point x="512" y="473" type="line"/>
      <point x="512" y="595" type="line"/>
    </contour>
  </outline>
</glyph>
<glyph name="tml_TtUu" format="1">
  <advance width="1312"/>
  <outline>
    <contour>
      <point x="1067" y="0" type="line"/>
      <point x="1189" y="0" type="line"/>
      <point x="1189" y="593" type="line"/>
      <point x="1067" y="593" type="line"/>
    </contour>
    <contour>
      <point x="1016" y="473" type="line"/>
      <point x="1273" y="473" type="line"/>
      <point x="1273" y="595" type="line"/>
      <point x="1016" y="595" type="line"/>
    </contour>
    <contour>
      <point x="783" y="473" type="line"/>
      <point x="783" y="595" type="line"/>
      <point x="962" y="595" type="line"/>
      <point x="962" y="473" type="line"/>
    </contour>
    <contour>
      <point x="410" y="-164" type="line"/>
      <point x="568" y="-164" type="line" smooth="yes"/>
      <point x="617" y="-164"/>
      <point x="620" y="-111"/>
      <point x="620" y="-81" type="curve" smooth="yes"/>
      <point x="621" y="156" type="line"/>
      <point x="743" y="156" type="line"/>
      <point x="743" y="-81" type="line" smooth="yes"/>
      <point x="743" y="-147"/>
      <point x="722" y="-258"/>
      <point x="569" y="-258" type="curve" smooth="yes"/>
      <point x="410" y="-258" type="line"/>
    </contour>
    <contour>
      <point x="39" y="-126" type="line" smooth="yes"/>
      <point x="39" y="-58"/>
      <point x="102" y="-28"/>
      <point x="190" y="-28" type="curve" smooth="yes"/>
      <point x="783" y="-28" type="line"/>
      <point x="783" y="582" type="line" smooth="yes"/>
      <point x="905" y="582" type="line" smooth="yes"/>
      <point x="905" y="-121" type="line"/>
      <point x="190" y="-121" type="line" smooth="yes"/>
      <point x="150" y="-121"/>
      <point x="151" y="-164"/>
      <point x="189" y="-164" type="curve" smooth="yes"/>
      <point x="356" y="-164" type="line"/>
      <point x="356" y="-258" type="line"/>
      <point x="189" y="-257" type="line" smooth="yes"/>
      <point x="156" y="-257"/>
      <point x="40" y="-254"/>
      <point x="39" y="-159" type="curve" smooth="yes"/>
    </contour>
    <contour>
      <point x="49" y="155" type="curve"/>
      <point x="172" y="155" type="line"/>
      <point x="179" y="118"/>
      <point x="195" y="125"/>
      <point x="275" y="125" type="curve"/>
      <point x="275" y="2" type="line"/>
      <point x="108" y="2"/>
      <point x="49" y="62"/>
    </contour>
    <contour>
      <point x="49" y="210" type="line"/>
      <point x="170" y="210" type="line"/>
      <point x="170" y="250"/>
      <point x="191" y="252"/>
      <point x="248" y="252" type="curve" smooth="yes"/>
      <point x="574" y="252" type="line"/>
      <point x="616" y="252"/>
      <point x="621" y="256"/>
      <point x="621" y="210" type="curve" smooth="yes"/>
      <point x="743" y="210" type="line"/>
      <point x="743" y="346"/>
      <point x="659" y="374"/>
      <point x="574" y="374" type="curve"/>
      <point x="245" y="374" type="line" smooth="yes"/>
      <point x="160" y="374"/>
      <point x="49" y="329"/>
      <point x="49" y="221" type="curve" smooth="yes"/>
    </contour>
    <contour>
      <point x="329" y="2" type="line"/>
      <point x="499" y="2"/>
      <point x="551" y="103"/>
      <point x="551" y="194" type="curve" smooth="yes"/>
      <point x="551" y="591" type="line"/>
      <point x="429" y="591" type="line"/>
      <point x="429" y="190" type="line" smooth="yes"/>
      <point x="429" y="144"/>
      <point x="403" y="125"/>
      <point x="329" y="125" type="curve"/>
    </contour>
    <contour>
      <point x="174" y="351" type="line"/>
      <point x="296" y="351" type="line"/>
      <point x="297" y="589" type="line"/>
      <point x="174" y="589" type="line"/>
    </contour>
    <contour>
      <point x="389" y="473" type="line"/>
      <point x="683" y="473" type="line"/>
      <point x="683" y="595" type="line"/>
      <point x="389" y="595" type="line"/>
    </contour>
    <contour>
      <point x="174" y="473" type="line"/>
      <point x="335" y="473" type="line"/>
      <point x="335" y="595" type="line"/>
      <point x="174" y="595" type="line"/>
    </contour>
  </outline>
</glyph>
